<?xml version="1.0" encoding="UTF-8" standalone="no"?>
<!DOCTYPE svg PUBLIC "-//W3C//DTD SVG 1.1//EN" "http://www.w3.org/Graphics/SVG/1.1/DTD/svg11.dtd">

<!-- Created with Vectornator (http://vectornator.io/) -->
<svg height="100%" stroke-miterlimit="10" style="fill-rule:nonzero;clip-rule:evenodd;stroke-linecap:round;stroke-linejoin:round;" version="1.1" viewBox="0 0 1280 720" width="100%" xml:space="preserve" xmlns="http://www.w3.org/2000/svg" xmlns:vectornator="http://vectornator.io" xmlns:xlink="http://www.w3.org/1999/xlink">
<metadata>
<vectornator:setting key="IsTimeLapseWatermarkDisabled" value="false"/>
<vectornator:setting key="UndoHistoryDisabled" value="true"/>
<vectornator:setting key="VNDimensionsVisible" value="true"/>
<vectornator:setting key="VNSnapToGuides" value="true"/>
<vectornator:setting key="WDCMYKEnabledKey" value="false"/>
<vectornator:setting key="WDDisplayWhiteBackground" value="false"/>
<vectornator:setting key="WDDynamicGuides" value="false"/>
<vectornator:setting key="WDGuidesVisible" value="true"/>
<vectornator:setting key="WDIsolateActiveLayer" value="false"/>
<vectornator:setting key="WDOutlineMode" value="false"/>
<vectornator:setting key="WDRulersVisible" value="true"/>
<vectornator:setting key="WDSnapToEdges" value="false"/>
<vectornator:setting key="WDSnapToGrid" value="false"/>
<vectornator:setting key="WDSnapToPoints" value="true"/>
<vectornator:setting key="WDUnits" value="Pixels"/>
</metadata>
<defs>
<clipPath id="TextBounds">
<rect height="75.9774" width="812.117" x="222.298" y="555.315"/>
</clipPath>
<clipPath id="TextBounds_2">
<rect height="78.8049" width="1016.33" x="131.837" y="465.403"/>
</clipPath>
</defs>
<clipPath id="ArtboardFrame">
<rect height="720" width="1280" x="0" y="0"/>
</clipPath>
<g clip-path="url(#ArtboardFrame)" id="Ebene-1" vectornator:layerName="Ebene 1">
<path d="M-81.0299-96.3496L1348.39-96.3496C1351.09-96.3496 1353.27-95.0392 1353.27-93.4228L1353.27 767.768C1353.27 769.384 1351.09 770.694 1348.39 770.694L-81.0299 770.694C-83.7274 770.694-85.9141 769.384-85.9141 767.768L-85.9141-93.4228C-85.9141-95.0392-83.7274-96.3496-81.0299-96.3496Z" fill="#150f29" fill-rule="evenodd" opacity="1" stroke="none"/>
<g opacity="1">
<g fill="#e9d9cc" opacity="1" stroke="none">
<path clip-path="url(#TextBounds)" d="M445.049 574.902L442.749 573.509C441.305 572.631 440.279 571.766 439.668 570.913C439.058 570.061 438.752 569.079 438.752 567.969C438.752 566.304 439.33 564.952 440.486 563.912C441.641 562.873 443.142 562.353 444.989 562.353C446.755 562.353 448.374 562.848 449.848 563.837L449.848 567.273C448.324 565.81 446.684 565.078 444.928 565.078C443.939 565.078 443.127 565.308 442.491 565.767C441.855 566.226 441.538 566.814 441.538 567.53C441.538 568.166 441.77 568.761 442.234 569.316C442.698 569.871 443.45 570.452 444.489 571.057L446.805 572.419C449.388 573.953 450.68 575.911 450.68 578.292C450.68 579.988 450.113 581.365 448.977 582.425C447.842 583.484 446.366 584.014 444.55 584.014C442.461 584.014 440.559 583.373 438.843 582.092L438.843 578.247C440.478 580.316 442.37 581.35 444.52 581.35C445.468 581.35 446.258 581.085 446.888 580.555C447.519 580.026 447.834 579.362 447.834 578.565C447.834 577.273 446.906 576.052 445.049 574.902Z" fill-rule="evenodd"/>
<path clip-path="url(#TextBounds)" d="M468.394 562.323C471.664 562.323 474.386 563.357 476.56 565.426C478.735 567.495 479.822 570.088 479.822 573.206C479.822 576.325 478.725 578.905 476.53 580.949C474.335 582.992 471.568 584.014 468.228 584.014C465.039 584.014 462.382 582.992 460.258 580.949C458.134 578.905 457.072 576.345 457.072 573.267C457.072 570.108 458.141 567.495 460.281 565.426C462.42 563.357 465.124 562.323 468.394 562.323ZM468.515 565.199C466.093 565.199 464.103 565.956 462.544 567.47C460.985 568.983 460.205 570.916 460.205 573.267C460.205 575.548 460.987 577.445 462.551 578.958C464.115 580.472 466.073 581.229 468.424 581.229C470.786 581.229 472.756 580.457 474.335 578.913C475.914 577.369 476.704 575.447 476.704 573.146C476.704 570.906 475.914 569.021 474.335 567.492C472.756 565.964 470.816 565.199 468.515 565.199Z" fill-rule="evenodd"/>
<path clip-path="url(#TextBounds)" d="M487.561 562.626L498.838 562.626L498.838 565.32L490.588 565.32L490.588 571.224L498.838 571.224L498.838 573.918L490.588 573.918L490.588 583.772L487.561 583.772L487.561 562.626Z" fill-rule="evenodd"/>
<path clip-path="url(#TextBounds)" d="M504.276 562.596L521.94 562.596L521.94 565.29L514.569 565.29L514.569 583.772L511.526 583.772L511.526 565.29L504.276 565.29L504.276 562.596Z" fill-rule="evenodd"/>
<path clip-path="url(#TextBounds)" d="M555.729 562.626L558.742 562.626L550.189 583.863L549.539 583.863L542.621 566.667L535.643 583.863L534.992 583.863L526.47 562.626L529.513 562.626L535.34 577.203L541.198 562.626L544.074 562.626L549.962 577.203L555.729 562.626Z" fill-rule="evenodd"/>
<path clip-path="url(#TextBounds)" d="M569.372 562.505L571.506 562.505L580.966 583.772L577.863 583.772L575.048 577.505L566.057 577.505L563.393 583.772L560.29 583.772L569.372 562.505ZM573.807 574.811L570.401 567.152L567.237 574.811L573.807 574.811Z" fill-rule="evenodd"/>
<path clip-path="url(#TextBounds)" d="M587.388 583.772L587.388 562.626L592.686 562.626C594.825 562.626 596.523 563.156 597.78 564.215C599.036 565.275 599.664 566.708 599.664 568.514C599.664 569.745 599.356 570.81 598.741 571.708C598.125 572.606 597.242 573.277 596.092 573.721C596.768 574.165 597.429 574.771 598.075 575.537C598.721 576.304 599.629 577.641 600.799 579.549C601.536 580.75 602.126 581.653 602.57 582.258L603.69 583.772L600.088 583.772L599.165 582.379C599.134 582.329 599.074 582.243 598.983 582.122L598.393 581.289L597.454 579.746L596.44 578.096C595.814 577.228 595.242 576.537 594.722 576.022C594.202 575.507 593.733 575.136 593.314 574.909C592.895 574.682 592.192 574.569 591.203 574.569L590.416 574.569L590.416 583.772L587.388 583.772ZM591.324 565.199L590.416 565.199L590.416 571.874L591.566 571.874C593.1 571.874 594.152 571.743 594.722 571.481C595.292 571.218 595.736 570.822 596.054 570.293C596.372 569.763 596.531 569.16 596.531 568.484C596.531 567.818 596.354 567.215 596.001 566.675C595.648 566.135 595.151 565.754 594.51 565.532C593.869 565.31 592.807 565.199 591.324 565.199Z" fill-rule="evenodd"/>
<path clip-path="url(#TextBounds)" d="M610.021 562.626L622.01 562.626L622.01 565.32L613.049 565.32L613.049 571.768L621.707 571.768L621.707 574.478L613.049 574.478L613.049 581.047L622.297 581.047L622.297 583.742L610.021 583.742L610.021 562.626Z" fill-rule="evenodd"/>
<path clip-path="url(#TextBounds)" d="M642.134 562.626L654.123 562.626L654.123 565.32L645.162 565.32L645.162 571.768L653.82 571.768L653.82 574.478L645.162 574.478L645.162 581.047L654.41 581.047L654.41 583.742L642.134 583.742L642.134 562.626Z" fill-rule="evenodd"/>
<path clip-path="url(#TextBounds)" d="M678.436 562.626L681.312 562.626L681.312 583.772L678.708 583.772L664.571 567.5L664.571 583.772L661.725 583.772L661.725 562.626L664.177 562.626L678.436 579.034L678.436 562.626Z" fill-rule="evenodd"/>
<path clip-path="url(#TextBounds)" d="M701.266 573.358L708.365 573.358L708.365 582.319C705.762 583.449 703.178 584.014 700.615 584.014C697.114 584.014 694.316 582.992 692.222 580.949C690.128 578.905 689.081 576.385 689.081 573.388C689.081 570.23 690.166 567.601 692.335 565.502C694.505 563.403 697.225 562.353 700.494 562.353C701.685 562.353 702.815 562.482 703.885 562.739C704.954 562.997 706.307 563.468 707.941 564.155L707.941 567.243C705.419 565.779 702.916 565.048 700.434 565.048C698.123 565.048 696.175 565.835 694.591 567.409C693.006 568.983 692.214 570.916 692.214 573.206C692.214 575.608 693.006 577.571 694.591 579.095C696.175 580.618 698.214 581.38 700.706 581.38C701.917 581.38 703.365 581.103 705.05 580.548L705.338 580.457L705.338 576.052L701.266 576.052L701.266 573.358Z" fill-rule="evenodd"/>
<path clip-path="url(#TextBounds)" d="M716.815 562.626L719.843 562.626L719.843 583.772L716.815 583.772L716.815 562.626Z" fill-rule="evenodd"/>
<path clip-path="url(#TextBounds)" d="M745.337 562.626L748.213 562.626L748.213 583.772L745.609 583.772L731.472 567.5L731.472 583.772L728.626 583.772L728.626 562.626L731.078 562.626L745.337 579.034L745.337 562.626Z" fill-rule="evenodd"/>
<path clip-path="url(#TextBounds)" d="M756.739 562.626L768.727 562.626L768.727 565.32L759.766 565.32L759.766 571.768L768.424 571.768L768.424 574.478L759.766 574.478L759.766 581.047L769.015 581.047L769.015 583.742L756.739 583.742L756.739 562.626Z" fill-rule="evenodd"/>
<path clip-path="url(#TextBounds)" d="M776.239 562.626L788.227 562.626L788.227 565.32L779.266 565.32L779.266 571.768L787.924 571.768L787.924 574.478L779.266 574.478L779.266 581.047L788.515 581.047L788.515 583.742L776.239 583.742L776.239 562.626Z" fill-rule="evenodd"/>
<path clip-path="url(#TextBounds)" d="M795.83 583.772L795.83 562.626L801.127 562.626C803.267 562.626 804.965 563.156 806.221 564.215C807.477 565.275 808.105 566.708 808.105 568.514C808.105 569.745 807.798 570.81 807.182 571.708C806.567 572.606 805.684 573.277 804.533 573.721C805.209 574.165 805.87 574.771 806.516 575.537C807.162 576.304 808.07 577.641 809.241 579.549C809.977 580.75 810.568 581.653 811.012 582.258L812.132 583.772L808.529 583.772L807.606 582.379C807.576 582.329 807.515 582.243 807.424 582.122L806.834 581.289L805.895 579.746L804.881 578.096C804.256 577.228 803.683 576.537 803.163 576.022C802.644 575.507 802.174 575.136 801.756 574.909C801.337 574.682 800.633 574.569 799.644 574.569L798.857 574.569L798.857 583.772L795.83 583.772ZM799.765 565.199L798.857 565.199L798.857 571.874L800.007 571.874C801.541 571.874 802.593 571.743 803.163 571.481C803.733 571.218 804.177 570.822 804.495 570.293C804.813 569.763 804.972 569.16 804.972 568.484C804.972 567.818 804.796 567.215 804.442 566.675C804.089 566.135 803.592 565.754 802.951 565.532C802.311 565.31 801.249 565.199 799.765 565.199Z" fill-rule="evenodd"/>
</g>
<g fill="#e9d9cc" opacity="1" stroke="none">
<path clip-path="url(#TextBounds_2)" d="M367.636 478.846L373.175 478.846L357.45 517.894L356.253 517.894L343.534 486.277L330.703 517.894L329.506 517.894L313.837 478.846L319.431 478.846L330.146 505.648L340.917 478.846L346.205 478.846L357.032 505.648L367.636 478.846Z" fill-rule="evenodd"/>
<path clip-path="url(#TextBounds_2)" d="M404.327 478.289C410.339 478.289 415.344 480.191 419.342 483.995C423.341 487.798 425.34 492.567 425.34 498.3C425.34 504.034 423.322 508.779 419.287 512.536C415.251 516.294 410.162 518.172 404.021 518.172C398.158 518.172 393.273 516.294 389.367 512.536C385.462 508.779 383.509 504.071 383.509 498.412C383.509 492.604 385.475 487.798 389.409 483.995C393.343 480.191 398.315 478.289 404.327 478.289ZM404.55 483.577C400.097 483.577 396.437 484.969 393.57 487.752C390.703 490.535 389.27 494.088 389.27 498.412C389.27 502.605 390.708 506.093 393.584 508.876C396.46 511.66 400.059 513.051 404.383 513.051C408.724 513.051 412.347 511.632 415.251 508.793C418.155 505.954 419.607 502.419 419.607 498.189C419.607 494.07 418.155 490.605 415.251 487.794C412.347 484.983 408.78 483.577 404.55 483.577Z" fill-rule="evenodd"/>
<path clip-path="url(#TextBounds_2)" d="M442.159 478.846L447.725 478.846L447.725 512.662L465.232 512.662L465.232 517.727L442.159 517.727L442.159 478.846Z" fill-rule="evenodd"/>
<path clip-path="url(#TextBounds_2)" d="M480.158 478.846L500.893 478.846L500.893 483.8L485.724 483.8L485.724 494.654L500.893 494.654L500.893 499.608L485.724 499.608L485.724 517.727L480.158 517.727L480.158 478.846Z" fill-rule="evenodd"/>
<path clip-path="url(#TextBounds_2)" d="M537.862 498.579L550.915 498.579L550.915 515.055C546.128 517.133 541.378 518.172 536.665 518.172C530.227 518.172 525.083 516.294 521.233 512.536C517.382 508.779 515.457 504.145 515.457 498.634C515.457 492.827 517.452 487.993 521.441 484.134C525.431 480.274 530.431 478.345 536.443 478.345C538.632 478.345 540.71 478.581 542.677 479.054C544.644 479.528 547.13 480.395 550.136 481.657L550.136 487.334C545.497 484.644 540.896 483.299 536.331 483.299C532.082 483.299 528.501 484.746 525.588 487.641C522.675 490.535 521.219 494.088 521.219 498.3C521.219 502.716 522.675 506.325 525.588 509.127C528.501 511.929 532.249 513.33 536.832 513.33C539.059 513.33 541.722 512.819 544.82 511.799L545.349 511.632L545.349 503.533L537.862 503.533L537.862 498.579Z" fill-rule="evenodd"/>
<path clip-path="url(#TextBounds_2)" d="M581.455 478.623L585.38 478.623L602.775 517.727L597.069 517.727L591.892 506.205L575.36 506.205L570.462 517.727L564.756 517.727L581.455 478.623ZM589.61 501.25L583.348 487.167L577.531 501.25L589.61 501.25Z" fill-rule="evenodd"/>
<path clip-path="url(#TextBounds_2)" d="M647.954 478.846L653.243 478.846L653.243 517.727L648.455 517.727L622.46 487.808L622.46 517.727L617.228 517.727L617.228 478.846L621.737 478.846L647.954 509.016L647.954 478.846Z" fill-rule="evenodd"/>
<path clip-path="url(#TextBounds_2)" d="M692.577 498.579L705.631 498.579L705.631 515.055C700.844 517.133 696.094 518.172 691.381 518.172C684.942 518.172 679.798 516.294 675.948 512.536C672.098 508.779 670.173 504.145 670.173 498.634C670.173 492.827 672.167 487.993 676.157 484.134C680.146 480.274 685.146 478.345 691.158 478.345C693.348 478.345 695.426 478.581 697.392 479.054C699.359 479.528 701.846 480.395 704.851 481.657L704.851 487.334C700.213 484.644 695.611 483.299 691.047 483.299C686.798 483.299 683.217 484.746 680.304 487.641C677.39 490.535 675.934 494.088 675.934 498.3C675.934 502.716 677.39 506.325 680.304 509.127C683.217 511.929 686.965 513.33 691.548 513.33C693.774 513.33 696.437 512.819 699.535 511.799L700.064 511.632L700.064 503.533L692.577 503.533L692.577 498.579Z" fill-rule="evenodd"/>
<path clip-path="url(#TextBounds_2)" d="M791.982 478.846L797.521 478.846L781.796 517.894L780.599 517.894L767.88 486.277L755.049 517.894L753.852 517.894L738.183 478.846L743.777 478.846L754.493 505.648L765.264 478.846L770.552 478.846L781.378 505.648L791.982 478.846Z" fill-rule="evenodd"/>
<path clip-path="url(#TextBounds_2)" d="M811.863 478.846L833.906 478.846L833.906 483.8L817.429 483.8L817.429 495.656L833.349 495.656L833.349 500.638L817.429 500.638L817.429 512.717L834.434 512.717L834.434 517.671L811.863 517.671L811.863 478.846Z" fill-rule="evenodd"/>
<path clip-path="url(#TextBounds_2)" d="M850.418 478.846L855.985 478.846L855.985 517.727L850.418 517.727L850.418 478.846Z" fill-rule="evenodd"/>
<path clip-path="url(#TextBounds_2)" d="M895.626 498.579L908.679 498.579L908.679 515.055C903.892 517.133 899.142 518.172 894.429 518.172C887.991 518.172 882.846 516.294 878.996 512.536C875.146 508.779 873.221 504.145 873.221 498.634C873.221 492.827 875.216 487.993 879.205 484.134C883.194 480.274 888.195 478.345 894.206 478.345C896.396 478.345 898.474 478.581 900.441 479.054C902.408 479.528 904.894 480.395 907.9 481.657L907.9 487.334C903.261 484.644 898.66 483.299 894.095 483.299C889.846 483.299 886.265 484.746 883.352 487.641C880.439 490.535 878.982 494.088 878.982 498.3C878.982 502.716 880.439 506.325 883.352 509.127C886.265 511.929 890.013 513.33 894.596 513.33C896.823 513.33 899.485 512.819 902.584 511.799L903.113 511.632L903.113 503.533L895.626 503.533L895.626 498.579Z" fill-rule="evenodd"/>
<path clip-path="url(#TextBounds_2)" d="M926.806 478.846L932.372 478.846L932.372 512.662L949.879 512.662L949.879 517.727L926.806 517.727L926.806 478.846Z" fill-rule="evenodd"/>
</g>
</g>
<path d="M393.795 118.364C393.795 120.043 393.795 121.713 393.795 123.391C393.795 126.748 398.216 134.05 407.028 145.242C415.841 156.433 436.763 161.963 469.811 161.963C502.858 161.963 530.9 179.906 554.033 215.718C565.6 233.624 577.243 251.567 588.81 269.473C593.767 264.437 598.727 259.326 603.685 254.29C613.599 244.218 605.837 219.076 580.5 178.787C555.164 138.499 517.741 118.364 468.169 118.364C443.384 118.364 418.581 118.364 393.795 118.364ZM592.093 118.364C599.804 131.234 607.463 144.067 615.174 156.936C630.597 182.676 640.517 194.464 644.924 192.226C649.33 189.988 658.712 178.199 673.033 156.936C687.353 135.673 693.933 123.988 692.832 121.75C691.73 119.511 674.689 118.364 641.641 118.364C625.118 118.364 608.616 118.364 592.093 118.364ZM813.472 118.364C765.002 118.364 716.039 155.295 666.467 229.157C641.681 266.087 616.878 303.018 592.093 339.949C575.569 315.888 559.068 291.79 542.544 267.729C509.496 219.607 485.233 196.133 469.811 197.253C462.1 197.812 454.338 198.334 446.626 198.894C469.76 234.706 492.943 270.592 516.077 306.403C562.343 378.027 587.686 413.81 592.093 413.81C596.499 413.81 625.723 371.872 679.701 287.938C733.678 204.005 777.681 161.963 811.831 161.963C845.98 161.963 866.902 156.955 874.613 146.883C882.324 136.811 886.205 129.509 886.205 125.032C886.205 122.794 886.205 120.603 886.205 118.364C861.97 118.364 837.707 118.364 813.472 118.364ZM810.189 195.611C794.767 195.611 766.726 225.24 725.967 284.553C685.208 343.866 668.064 380.274 674.674 393.704C681.283 407.133 687.324 412.663 692.832 410.425C698.339 408.187 723.682 372.925 768.847 304.66C814.013 236.394 836.117 201.132 835.015 198.894C833.913 196.656 825.611 195.611 810.189 195.611Z" fill="#e9d9cc" fill-rule="evenodd" opacity="1" stroke="#000000" stroke-linecap="round" stroke-linejoin="round" stroke-opacity="0.00430963" stroke-width="1"/>
</g>
</svg>
