<?xml version="1.0" encoding="UTF-8" standalone="no"?>
<!DOCTYPE svg PUBLIC "-//W3C//DTD SVG 1.1//EN" "http://www.w3.org/Graphics/SVG/1.1/DTD/svg11.dtd">

<!-- Created with Vectornator (http://vectornator.io/) -->
<svg height="100%" stroke-miterlimit="10" style="fill-rule:nonzero;clip-rule:evenodd;stroke-linecap:round;stroke-linejoin:round;" version="1.1" viewBox="0 0 110 110" width="100%" xml:space="preserve" xmlns="http://www.w3.org/2000/svg" xmlns:vectornator="http://vectornator.io" xmlns:xlink="http://www.w3.org/1999/xlink">
<metadata>
<vectornator:setting key="IsTimeLapseWatermarkDisabled" value="false"/>
<vectornator:setting key="UndoHistoryDisabled" value="true"/>
<vectornator:setting key="VNDimensionsVisible" value="true"/>
<vectornator:setting key="VNSnapToGuides" value="true"/>
<vectornator:setting key="WDCMYKEnabledKey" value="false"/>
<vectornator:setting key="WDDisplayWhiteBackground" value="false"/>
<vectornator:setting key="WDDynamicGuides" value="false"/>
<vectornator:setting key="WDGuidesVisible" value="true"/>
<vectornator:setting key="WDIsolateActiveLayer" value="false"/>
<vectornator:setting key="WDOutlineMode" value="false"/>
<vectornator:setting key="WDRulersVisible" value="true"/>
<vectornator:setting key="WDSnapToEdges" value="false"/>
<vectornator:setting key="WDSnapToGrid" value="false"/>
<vectornator:setting key="WDSnapToPoints" value="true"/>
<vectornator:setting key="WDUnits" value="Pixels"/>
</metadata>
<defs/>
<clipPath id="ArtboardFrame">
<rect height="110" width="110" x="0" y="0"/>
</clipPath>
<g clip-path="url(#ArtboardFrame)" id="Ebene-1" vectornator:layerName="Ebene 1">
<path d="M-58.9848-63.3224L166.671-63.3224C167.097-63.3224 167.442-63.0164 167.442-62.6389L167.442 138.469C167.442 138.847 167.097 139.153 166.671 139.153L-58.9848 139.153C-59.4107 139.153-59.7559 138.847-59.7559 138.469L-59.7559-62.6389C-59.7559-63.0164-59.4107-63.3224-58.9848-63.3224Z" fill="#150f29" fill-rule="evenodd" opacity="1" stroke="none"/>
<path d="M2.5 23.5C2.5 23.858 2.5 24.214 2.5 24.5719C2.5 25.2878 3.44268 26.8449 5.32187 29.2312C7.20107 31.6176 11.6624 32.7968 18.7094 32.7969C25.7564 32.7969 31.7359 36.6231 36.6687 44.2594C39.1352 48.0776 41.618 51.9037 44.0844 55.7219C45.1414 54.648 46.1992 53.5582 47.2562 52.4844C49.3703 50.3366 47.7152 44.9754 42.3125 36.3844C36.9098 27.7935 28.9299 23.5 18.3594 23.5C13.0741 23.5 7.78524 23.5 2.5 23.5ZM44.7844 23.5C46.4287 26.2443 48.062 28.9807 49.7063 31.725C52.9948 37.2136 55.1103 39.7272 56.05 39.25C56.9896 38.7727 58.9901 36.2591 62.0438 31.725C65.0974 27.1909 66.5005 24.6991 66.2656 24.2219C66.0307 23.7446 62.397 23.5 55.35 23.5C51.8265 23.5 48.3078 23.5 44.7844 23.5ZM91.9906 23.5C81.6551 23.5 71.2143 31.375 60.6438 47.125C55.3585 55 50.0696 62.875 44.7844 70.75C41.2609 65.6193 37.7422 60.4807 34.2188 55.35C27.1718 45.0886 21.9979 40.0833 18.7094 40.3219C17.0651 40.4412 15.41 40.5525 13.7656 40.6719C18.6985 48.3082 23.6421 55.9606 28.575 63.5969C38.4408 78.8696 43.8448 86.5 44.7844 86.5C45.724 86.5 51.9556 77.5571 63.4656 59.6594C74.9757 41.7616 84.3587 32.7969 91.6406 32.7969C98.9225 32.7969 103.384 31.729 105.028 29.5812C106.672 27.4335 107.5 25.8764 107.5 24.9219C107.5 24.4446 107.5 23.9773 107.5 23.5C102.332 23.5 97.1584 23.5 91.9906 23.5ZM91.2906 39.9719C88.002 39.9719 82.0225 46.2898 73.3312 58.9375C64.64 71.5852 60.9843 79.3489 62.3938 82.2125C63.8031 85.0761 65.0912 86.2554 66.2656 85.7781C67.4401 85.3009 72.8441 77.7818 82.475 63.225C92.1059 48.6682 96.8193 41.1491 96.5844 40.6719C96.3495 40.1946 94.5792 39.9719 91.2906 39.9719Z" fill="#e9d9cc" fill-rule="evenodd" opacity="1" stroke="#000000" stroke-linecap="round" stroke-linejoin="round" stroke-opacity="0.00430963" stroke-width="1"/>
</g>
</svg>
