<?xml version="1.0" encoding="UTF-8" standalone="no"?>
<!DOCTYPE svg PUBLIC "-//W3C//DTD SVG 1.1//EN" "http://www.w3.org/Graphics/SVG/1.1/DTD/svg11.dtd">

<!-- Created with Vectornator (http://vectornator.io/) -->
<svg height="100%" stroke-miterlimit="10" style="fill-rule:nonzero;clip-rule:evenodd;stroke-linecap:round;stroke-linejoin:round;" version="1.1" viewBox="0 0 834 1194" width="100%" xml:space="preserve" xmlns="http://www.w3.org/2000/svg" xmlns:vectornator="http://vectornator.io" xmlns:xlink="http://www.w3.org/1999/xlink">
<metadata>
<vectornator:setting key="IsTimeLapseWatermarkDisabled" value="false"/>
<vectornator:setting key="UndoHistoryDisabled" value="true"/>
<vectornator:setting key="VNDimensionsVisible" value="true"/>
<vectornator:setting key="VNSnapToGuides" value="true"/>
<vectornator:setting key="WDCMYKEnabledKey" value="false"/>
<vectornator:setting key="WDDisplayWhiteBackground" value="false"/>
<vectornator:setting key="WDDynamicGuides" value="false"/>
<vectornator:setting key="WDGuidesVisible" value="false"/>
<vectornator:setting key="WDIsolateActiveLayer" value="false"/>
<vectornator:setting key="WDOutlineMode" value="false"/>
<vectornator:setting key="WDRulersVisible" value="true"/>
<vectornator:setting key="WDSnapToEdges" value="false"/>
<vectornator:setting key="WDSnapToGrid" value="false"/>
<vectornator:setting key="WDSnapToPoints" value="true"/>
<vectornator:setting key="WDUnits" value="Points"/>
</metadata>
<defs>
<clipPath id="TextBounds">
<rect height="30.8594" width="320.273" x="256.864" y="677.474"/>
</clipPath>
<clipPath id="TextBounds_2">
<rect height="32.0078" width="393.757" x="220.121" y="640.955"/>
</clipPath>
</defs>
<clipPath id="ArtboardFrame">
<rect height="1194" width="834" x="0" y="0"/>
</clipPath>
<g clip-path="url(#ArtboardFrame)" id="Hintergrund" vectornator:layerName="Hintergrund">
<path d="M-193.377-46.7658L1063.95-46.7658C1066.32-46.7658 1068.24-44.8423 1068.24-42.4696L1068.24 1221.64C1068.24 1224.01 1066.32 1225.93 1063.95 1225.93L-193.377 1225.93C-195.749 1225.93-197.673 1224.01-197.673 1221.64L-197.673-42.4696C-197.673-44.8423-195.749-46.7658-193.377-46.7658Z" fill="#150f29" fill-rule="evenodd" opacity="1" stroke="none"/>
</g>
<g id="Schriftzug" vectornator:layerName="Schriftzug">
<g fill="#e9d9cc" opacity="1" stroke="none">
<path clip-path="url(#TextBounds)" d="M321.037 685.688L320.073 685.104C319.467 684.736 319.037 684.373 318.781 684.015C318.525 683.658 318.397 683.246 318.397 682.781C318.397 682.083 318.639 681.515 319.124 681.08C319.608 680.644 320.238 680.426 321.012 680.426C321.753 680.426 322.432 680.633 323.05 681.048L323.05 682.489C322.411 681.875 321.723 681.568 320.987 681.568C320.572 681.568 320.231 681.665 319.965 681.857C319.698 682.05 319.565 682.296 319.565 682.597C319.565 682.863 319.662 683.113 319.857 683.346C320.051 683.578 320.367 683.822 320.802 684.076L321.774 684.647C322.857 685.29 323.399 686.111 323.399 687.11C323.399 687.821 323.161 688.398 322.685 688.843C322.208 689.287 321.59 689.509 320.828 689.509C319.952 689.509 319.154 689.241 318.435 688.703L318.435 687.091C319.12 687.958 319.914 688.392 320.815 688.392C321.213 688.392 321.544 688.281 321.809 688.059C322.073 687.837 322.205 687.558 322.205 687.224C322.205 686.682 321.816 686.17 321.037 685.688Z" fill-rule="evenodd"/>
<path clip-path="url(#TextBounds)" d="M333.15 680.413C334.521 680.413 335.662 680.847 336.574 681.714C337.486 682.582 337.942 683.669 337.942 684.977C337.942 686.285 337.482 687.367 336.562 688.224C335.641 689.081 334.481 689.509 333.08 689.509C331.743 689.509 330.629 689.081 329.738 688.224C328.847 687.367 328.402 686.293 328.402 685.002C328.402 683.678 328.85 682.582 329.747 681.714C330.644 680.847 331.779 680.413 333.15 680.413ZM333.2 681.619C332.185 681.619 331.35 681.937 330.696 682.571C330.042 683.206 329.716 684.016 329.716 685.002C329.716 685.959 330.044 686.754 330.699 687.389C331.355 688.024 332.176 688.341 333.162 688.341C334.153 688.341 334.979 688.018 335.641 687.37C336.303 686.723 336.635 685.917 336.635 684.952C336.635 684.012 336.303 683.222 335.641 682.581C334.979 681.94 334.165 681.619 333.2 681.619Z" fill-rule="evenodd"/>
<path clip-path="url(#TextBounds)" d="M343.51 680.54L348.239 680.54L348.239 681.67L344.78 681.67L344.78 684.146L348.239 684.146L348.239 685.275L344.78 685.275L344.78 689.408L343.51 689.408L343.51 680.54Z" fill-rule="evenodd"/>
<path clip-path="url(#TextBounds)" d="M352.842 680.527L360.25 680.527L360.25 681.657L357.158 681.657L357.158 689.408L355.883 689.408L355.883 681.657L352.842 681.657L352.842 680.527Z" fill-rule="evenodd"/>
<path clip-path="url(#TextBounds)" d="M376.742 680.54L378.005 680.54L374.419 689.446L374.146 689.446L371.245 682.235L368.319 689.446L368.046 689.446L364.472 680.54L365.748 680.54L368.192 686.653L370.648 680.54L371.854 680.54L374.323 686.653L376.742 680.54Z" fill-rule="evenodd"/>
<path clip-path="url(#TextBounds)" d="M384.785 680.489L385.68 680.489L389.648 689.408L388.346 689.408L387.166 686.78L383.395 686.78L382.278 689.408L380.977 689.408L384.785 680.489ZM386.645 685.65L385.217 682.438L383.89 685.65L386.645 685.65Z" fill-rule="evenodd"/>
<path clip-path="url(#TextBounds)" d="M394.663 689.408L394.663 680.54L396.885 680.54C397.782 680.54 398.494 680.762 399.021 681.207C399.548 681.651 399.811 682.252 399.811 683.009C399.811 683.526 399.682 683.972 399.424 684.349C399.166 684.725 398.796 685.007 398.313 685.193C398.597 685.379 398.874 685.633 399.145 685.955C399.416 686.276 399.796 686.837 400.287 687.637C400.596 688.14 400.844 688.519 401.03 688.773L401.5 689.408L399.989 689.408L399.602 688.824C399.589 688.803 399.564 688.767 399.526 688.716L399.278 688.367L398.885 687.719L398.459 687.027C398.197 686.663 397.957 686.374 397.739 686.158C397.521 685.942 397.324 685.786 397.148 685.691C396.973 685.596 396.678 685.548 396.263 685.548L395.933 685.548L395.933 689.408L394.663 689.408ZM396.314 681.619L395.933 681.619L395.933 684.418L396.415 684.418C397.059 684.418 397.5 684.363 397.739 684.253C397.978 684.143 398.164 683.977 398.297 683.755C398.431 683.533 398.497 683.28 398.497 682.997C398.497 682.717 398.423 682.464 398.275 682.238C398.127 682.012 397.919 681.852 397.65 681.759C397.381 681.666 396.936 681.619 396.314 681.619Z" fill-rule="evenodd"/>
<path clip-path="url(#TextBounds)" d="M406.477 680.54L411.505 680.54L411.505 681.67L407.747 681.67L407.747 684.374L411.378 684.374L411.378 685.51L407.747 685.51L407.747 688.265L411.625 688.265L411.625 689.395L406.477 689.395L406.477 680.54Z" fill-rule="evenodd"/>
<path clip-path="url(#TextBounds)" d="M424.589 680.54L429.616 680.54L429.616 681.67L425.859 681.67L425.859 684.374L429.49 684.374L429.49 685.51L425.859 685.51L425.859 688.265L429.737 688.265L429.737 689.395L424.589 689.395L424.589 680.54Z" fill-rule="evenodd"/>
<path clip-path="url(#TextBounds)" d="M442.135 680.54L443.341 680.54L443.341 689.408L442.249 689.408L436.321 682.584L436.321 689.408L435.127 689.408L435.127 680.54L436.156 680.54L442.135 687.421L442.135 680.54Z" fill-rule="evenodd"/>
<path clip-path="url(#TextBounds)" d="M454.031 685.041L457.009 685.041L457.009 688.798C455.917 689.272 454.833 689.509 453.759 689.509C452.29 689.509 451.117 689.081 450.239 688.224C449.361 687.367 448.922 686.31 448.922 685.053C448.922 683.729 449.377 682.626 450.286 681.746C451.196 680.866 452.337 680.426 453.708 680.426C454.207 680.426 454.681 680.48 455.13 680.588C455.578 680.696 456.145 680.893 456.831 681.181L456.831 682.476C455.773 681.862 454.723 681.556 453.682 681.556C452.713 681.556 451.897 681.886 451.232 682.546C450.568 683.206 450.236 684.016 450.236 684.977C450.236 685.984 450.568 686.807 451.232 687.446C451.897 688.085 452.751 688.405 453.797 688.405C454.304 688.405 454.912 688.288 455.618 688.056L455.739 688.018L455.739 686.17L454.031 686.17L454.031 685.041Z" fill-rule="evenodd"/>
<path clip-path="url(#TextBounds)" d="M462.875 680.54L464.144 680.54L464.144 689.408L462.875 689.408L462.875 680.54Z" fill-rule="evenodd"/>
<path clip-path="url(#TextBounds)" d="M477.158 680.54L478.364 680.54L478.364 689.408L477.272 689.408L471.344 682.584L471.344 689.408L470.15 689.408L470.15 680.54L471.178 680.54L477.158 687.421L477.158 680.54Z" fill-rule="evenodd"/>
<path clip-path="url(#TextBounds)" d="M484.262 680.54L489.289 680.54L489.289 681.67L485.531 681.67L485.531 684.374L489.162 684.374L489.162 685.51L485.531 685.51L485.531 688.265L489.41 688.265L489.41 689.395L484.262 689.395L484.262 680.54Z" fill-rule="evenodd"/>
<path clip-path="url(#TextBounds)" d="M494.762 680.54L499.789 680.54L499.789 681.67L496.031 681.67L496.031 684.374L499.662 684.374L499.662 685.51L496.031 685.51L496.031 688.265L499.91 688.265L499.91 689.395L494.762 689.395L494.762 680.54Z" fill-rule="evenodd"/>
<path clip-path="url(#TextBounds)" d="M505.3 689.408L505.3 680.54L507.522 680.54C508.419 680.54 509.131 680.762 509.658 681.207C510.185 681.651 510.448 682.252 510.448 683.009C510.448 683.526 510.319 683.972 510.061 684.349C509.803 684.725 509.432 685.007 508.95 685.193C509.233 685.379 509.511 685.633 509.781 685.955C510.052 686.276 510.433 686.837 510.924 687.637C511.233 688.14 511.481 688.519 511.667 688.773L512.136 689.408L510.626 689.408L510.239 688.824C510.226 688.803 510.2 688.767 510.162 688.716L509.915 688.367L509.521 687.719L509.096 687.027C508.834 686.663 508.593 686.374 508.375 686.158C508.158 685.942 507.961 685.786 507.785 685.691C507.61 685.596 507.314 685.548 506.9 685.548L506.57 685.548L506.57 689.408L505.3 689.408ZM506.95 681.619L506.57 681.619L506.57 684.418L507.052 684.418C507.695 684.418 508.136 684.363 508.375 684.253C508.615 684.143 508.801 683.977 508.934 683.755C509.067 683.533 509.134 683.28 509.134 682.997C509.134 682.717 509.06 682.464 508.912 682.238C508.764 682.012 508.555 681.852 508.287 681.759C508.018 681.666 507.573 681.619 506.95 681.619Z" fill-rule="evenodd"/>
</g>
<g fill="#e9d9cc" opacity="1" stroke="none">
<path clip-path="url(#TextBounds_2)" d="M252.493 647.323L255.117 647.323L247.668 665.819L247.101 665.819L241.076 650.843L234.999 665.819L234.432 665.819L227.01 647.323L229.659 647.323L234.735 660.018L239.837 647.323L242.342 647.323L247.47 660.018L252.493 647.323Z" fill-rule="evenodd"/>
<path clip-path="url(#TextBounds_2)" d="M275.136 647.059C277.984 647.059 280.355 647.96 282.249 649.762C284.143 651.563 285.09 653.822 285.09 656.538C285.09 659.254 284.134 661.502 282.223 663.281C280.311 665.061 277.901 665.951 274.991 665.951C272.214 665.951 269.9 665.061 268.05 663.281C266.2 661.502 265.275 659.271 265.275 656.591C265.275 653.84 266.207 651.563 268.07 649.762C269.933 647.96 272.289 647.059 275.136 647.059ZM275.242 649.564C273.133 649.564 271.399 650.223 270.041 651.541C268.683 652.86 268.004 654.543 268.004 656.591C268.004 658.577 268.685 660.229 270.048 661.548C271.41 662.866 273.115 663.525 275.163 663.525C277.219 663.525 278.936 662.853 280.311 661.508C281.687 660.164 282.374 658.489 282.374 656.485C282.374 654.534 281.687 652.893 280.311 651.561C278.936 650.23 277.246 649.564 275.242 649.564Z" fill-rule="evenodd"/>
<path clip-path="url(#TextBounds_2)" d="M298.32 647.323L300.957 647.323L300.957 663.341L309.249 663.341L309.249 665.74L298.32 665.74L298.32 647.323Z" fill-rule="evenodd"/>
<path clip-path="url(#TextBounds_2)" d="M321.583 647.323L331.405 647.323L331.405 649.669L324.219 649.669L324.219 654.811L331.405 654.811L331.405 657.158L324.219 657.158L324.219 665.74L321.583 665.74L321.583 647.323Z" fill-rule="evenodd"/>
<path clip-path="url(#TextBounds_2)" d="M354.179 656.67L360.363 656.67L360.363 664.475C358.095 665.459 355.845 665.951 353.613 665.951C350.563 665.951 348.126 665.061 346.302 663.281C344.479 661.502 343.567 659.307 343.567 656.696C343.567 653.945 344.511 651.656 346.401 649.828C348.291 647.999 350.659 647.085 353.507 647.085C354.544 647.085 355.529 647.197 356.46 647.422C357.392 647.646 358.57 648.057 359.993 648.654L359.993 651.344C357.796 650.069 355.616 649.432 353.454 649.432C351.442 649.432 349.745 650.118 348.365 651.489C346.986 652.86 346.296 654.543 346.296 656.538C346.296 658.63 346.986 660.339 348.365 661.666C349.745 662.994 351.521 663.657 353.692 663.657C354.746 663.657 356.008 663.415 357.475 662.932L357.726 662.853L357.726 659.017L354.179 659.017L354.179 656.67Z" fill-rule="evenodd"/>
<path clip-path="url(#TextBounds_2)" d="M380.092 647.217L381.951 647.217L390.191 665.74L387.488 665.74L385.036 660.282L377.205 660.282L374.885 665.74L372.182 665.74L380.092 647.217ZM383.955 657.935L380.989 651.265L378.233 657.935L383.955 657.935Z" fill-rule="evenodd"/>
<path clip-path="url(#TextBounds_2)" d="M416.855 647.323L419.36 647.323L419.36 665.74L417.092 665.74L404.779 651.568L404.779 665.74L402.3 665.74L402.3 647.323L404.436 647.323L416.855 661.614L416.855 647.323Z" fill-rule="evenodd"/>
<path clip-path="url(#TextBounds_2)" d="M443.255 656.67L449.438 656.67L449.438 664.475C447.171 665.459 444.921 665.951 442.688 665.951C439.638 665.951 437.202 665.061 435.378 663.281C433.554 661.502 432.642 659.307 432.642 656.696C432.642 653.945 433.587 651.656 435.477 649.828C437.366 647.999 439.735 647.085 442.583 647.085C443.62 647.085 444.604 647.197 445.536 647.422C446.468 647.646 447.645 648.057 449.069 648.654L449.069 651.344C446.872 650.069 444.692 649.432 442.53 649.432C440.517 649.432 438.821 650.118 437.441 651.489C436.061 652.86 435.371 654.543 435.371 656.538C435.371 658.63 436.061 660.339 437.441 661.666C438.821 662.994 440.596 663.657 442.767 663.657C443.822 663.657 445.083 663.415 446.551 662.932L446.802 662.853L446.802 659.017L443.255 659.017L443.255 656.67Z" fill-rule="evenodd"/>
<path clip-path="url(#TextBounds_2)" d="M500.868 647.323L503.491 647.323L496.043 665.819L495.476 665.819L489.451 650.843L483.373 665.819L482.806 665.819L475.384 647.323L478.034 647.323L483.11 660.018L488.212 647.323L490.717 647.323L495.845 660.018L500.868 647.323Z" fill-rule="evenodd"/>
<path clip-path="url(#TextBounds_2)" d="M515.548 647.323L525.99 647.323L525.99 649.669L518.185 649.669L518.185 655.286L525.726 655.286L525.726 657.645L518.185 657.645L518.185 663.367L526.24 663.367L526.24 665.714L515.548 665.714L515.548 647.323Z" fill-rule="evenodd"/>
<path clip-path="url(#TextBounds_2)" d="M539.074 647.323L541.711 647.323L541.711 665.74L539.074 665.74L539.074 647.323Z" fill-rule="evenodd"/>
<path clip-path="url(#TextBounds_2)" d="M565.752 656.67L571.935 656.67L571.935 664.475C569.667 665.459 567.417 665.951 565.185 665.951C562.135 665.951 559.698 665.061 557.875 663.281C556.051 661.502 555.139 659.307 555.139 656.696C555.139 653.945 556.084 651.656 557.973 649.828C559.863 647.999 562.232 647.085 565.079 647.085C566.116 647.085 567.101 647.197 568.032 647.422C568.964 647.646 570.142 648.057 571.566 648.654L571.566 651.344C569.368 650.069 567.189 649.432 565.027 649.432C563.014 649.432 561.318 650.118 559.938 651.489C558.558 652.86 557.868 654.543 557.868 656.538C557.868 658.63 558.558 660.339 559.938 661.666C561.318 662.994 563.093 663.657 565.264 663.657C566.319 663.657 567.58 663.415 569.048 662.932L569.298 662.853L569.298 659.017L565.752 659.017L565.752 656.67Z" fill-rule="evenodd"/>
<path clip-path="url(#TextBounds_2)" d="M585.784 647.323L588.421 647.323L588.421 663.341L596.714 663.341L596.714 665.74L585.784 665.74L585.784 647.323Z" fill-rule="evenodd"/>
</g>
</g>
<g id="Icon" vectornator:layerName="Icon">
<path d="M342 535.5C342 536.011 342 536.52 342 537.031C342 538.054 343.347 540.278 346.031 543.688C348.716 547.097 355.089 548.781 365.156 548.781C375.223 548.781 383.766 554.247 390.812 565.156C394.336 570.611 397.883 576.077 401.406 581.531C402.916 579.997 404.427 578.44 405.938 576.906C408.958 573.838 406.593 566.179 398.875 553.906C391.157 541.634 379.757 535.5 364.656 535.5C357.106 535.5 349.55 535.5 342 535.5ZM402.406 535.5C404.755 539.42 407.089 543.33 409.438 547.25C414.135 555.091 417.158 558.682 418.5 558C419.842 557.318 422.7 553.727 427.062 547.25C431.425 540.773 433.429 537.213 433.094 536.531C432.758 535.849 427.567 535.5 417.5 535.5C412.466 535.5 407.44 535.5 402.406 535.5ZM469.844 535.5C455.079 535.5 440.163 546.75 425.062 569.25C417.512 580.5 409.957 591.75 402.406 603C397.373 595.67 392.346 588.33 387.312 581C377.245 566.341 369.854 559.19 365.156 559.531C362.807 559.702 360.443 559.861 358.094 560.031C365.141 570.94 372.203 581.872 379.25 592.781C393.344 614.599 401.064 625.5 402.406 625.5C403.749 625.5 412.651 612.724 429.094 587.156C445.537 561.588 458.941 548.781 469.344 548.781C479.746 548.781 486.12 547.256 488.469 544.188C490.818 541.119 492 538.895 492 537.531C492 536.849 492 536.182 492 535.5C484.617 535.5 477.226 535.5 469.844 535.5ZM468.844 559.031C464.146 559.031 455.604 568.057 443.188 586.125C430.771 604.193 425.549 615.284 427.562 619.375C429.576 623.466 431.416 625.151 433.094 624.469C434.772 623.787 442.492 613.045 456.25 592.25C470.008 571.455 476.742 560.713 476.406 560.031C476.071 559.349 473.542 559.031 468.844 559.031Z" fill="#e9d9cc" fill-rule="evenodd" opacity="1" stroke="#000000" stroke-linecap="round" stroke-linejoin="round" stroke-opacity="0.00430963" stroke-width="1"/>
</g>
</svg>
