<?xml version="1.0" encoding="UTF-8" standalone="no"?>
<!DOCTYPE svg PUBLIC "-//W3C//DTD SVG 1.1//EN" "http://www.w3.org/Graphics/SVG/1.1/DTD/svg11.dtd">

<!-- Created with Vectornator (http://vectornator.io/) -->
<svg height="100%" stroke-miterlimit="10" style="fill-rule:nonzero;clip-rule:evenodd;stroke-linecap:round;stroke-linejoin:round;" version="1.1" viewBox="0 0 1080 1080" width="100%" xml:space="preserve" xmlns="http://www.w3.org/2000/svg" xmlns:vectornator="http://vectornator.io" xmlns:xlink="http://www.w3.org/1999/xlink">
<metadata>
<vectornator:setting key="IsTimeLapseWatermarkDisabled" value="false"/>
<vectornator:setting key="UndoHistoryDisabled" value="true"/>
<vectornator:setting key="VNDimensionsVisible" value="true"/>
<vectornator:setting key="VNSnapToGuides" value="true"/>
<vectornator:setting key="WDCMYKEnabledKey" value="false"/>
<vectornator:setting key="WDDisplayWhiteBackground" value="false"/>
<vectornator:setting key="WDDynamicGuides" value="false"/>
<vectornator:setting key="WDGuidesVisible" value="true"/>
<vectornator:setting key="WDIsolateActiveLayer" value="false"/>
<vectornator:setting key="WDOutlineMode" value="false"/>
<vectornator:setting key="WDRulersVisible" value="true"/>
<vectornator:setting key="WDSnapToEdges" value="false"/>
<vectornator:setting key="WDSnapToGrid" value="false"/>
<vectornator:setting key="WDSnapToPoints" value="true"/>
<vectornator:setting key="WDUnits" value="Pixels"/>
</metadata>
<defs>
<clipPath id="TextBounds">
<rect height="75.9774" width="806.337" x="127.611" y="720.487"/>
</clipPath>
<clipPath id="TextBounds_2">
<rect height="78.8049" width="1005.7" x="37.15" y="630.575"/>
</clipPath>
</defs>
<g id="Ebene-1" vectornator:layerName="Ebene 1">
<g opacity="1">
<g fill="#000000" opacity="1" stroke="none">
<path clip-path="url(#TextBounds)" d="M347.473 740.073L345.172 738.681C343.729 737.803 342.702 736.938 342.092 736.085C341.481 735.232 341.176 734.251 341.176 733.141C341.176 731.476 341.754 730.124 342.909 729.084C344.065 728.045 345.566 727.525 347.412 727.525C349.178 727.525 350.798 728.02 352.271 729.009L352.271 732.445C350.747 730.981 349.108 730.25 347.352 730.25C346.363 730.25 345.55 730.479 344.915 730.938C344.279 731.398 343.961 731.985 343.961 732.702C343.961 733.338 344.193 733.933 344.657 734.488C345.122 735.043 345.873 735.623 346.913 736.229L349.229 737.591C351.812 739.125 353.104 741.083 353.104 743.464C353.104 745.159 352.536 746.537 351.401 747.596C350.266 748.656 348.79 749.186 346.973 749.186C344.884 749.186 342.982 748.545 341.267 747.263L341.267 743.419C342.902 745.487 344.794 746.522 346.943 746.522C347.892 746.522 348.681 746.257 349.312 745.727C349.943 745.197 350.258 744.534 350.258 743.737C350.258 742.445 349.33 741.224 347.473 740.073Z" fill-rule="evenodd"/>
<path clip-path="url(#TextBounds)" d="M370.818 727.495C374.087 727.495 376.809 728.529 378.984 730.598C381.158 732.667 382.246 735.26 382.246 738.378C382.246 741.496 381.148 744.077 378.954 746.121C376.759 748.164 373.991 749.186 370.651 749.186C367.462 749.186 364.806 748.164 362.682 746.121C360.557 744.077 359.495 741.517 359.495 738.439C359.495 735.28 360.565 732.667 362.704 730.598C364.844 728.529 367.548 727.495 370.818 727.495ZM370.939 730.371C368.517 730.371 366.526 731.128 364.967 732.641C363.408 734.155 362.629 736.087 362.629 738.439C362.629 740.719 363.411 742.616 364.975 744.13C366.539 745.644 368.497 746.401 370.848 746.401C373.209 746.401 375.179 745.629 376.759 744.085C378.338 742.541 379.128 740.618 379.128 738.318C379.128 736.077 378.338 734.193 376.759 732.664C375.179 731.135 373.239 730.371 370.939 730.371Z" fill-rule="evenodd"/>
<path clip-path="url(#TextBounds)" d="M389.985 727.798L401.261 727.798L401.261 730.492L393.012 730.492L393.012 736.395L401.261 736.395L401.261 739.09L393.012 739.09L393.012 748.944L389.985 748.944L389.985 727.798Z" fill-rule="evenodd"/>
<path clip-path="url(#TextBounds)" d="M406.699 727.767L424.364 727.767L424.364 730.462L416.992 730.462L416.992 748.944L413.95 748.944L413.95 730.462L406.699 730.462L406.699 727.767Z" fill-rule="evenodd"/>
<path clip-path="url(#TextBounds)" d="M458.153 727.798L461.165 727.798L452.613 749.034L451.962 749.034L445.045 731.839L438.067 749.034L437.416 749.034L428.894 727.798L431.936 727.798L437.764 742.374L443.622 727.798L446.498 727.798L452.386 742.374L458.153 727.798Z" fill-rule="evenodd"/>
<path clip-path="url(#TextBounds)" d="M471.795 727.677L473.929 727.677L483.39 748.944L480.287 748.944L477.471 742.677L468.48 742.677L465.816 748.944L462.713 748.944L471.795 727.677ZM476.23 739.983L472.824 732.323L469.661 739.983L476.23 739.983Z" fill-rule="evenodd"/>
<path clip-path="url(#TextBounds)" d="M489.812 748.944L489.812 727.798L495.11 727.798C497.249 727.798 498.947 728.327 500.203 729.387C501.459 730.447 502.088 731.879 502.088 733.686C502.088 734.917 501.78 735.982 501.164 736.88C500.549 737.778 499.666 738.449 498.515 738.893C499.191 739.337 499.852 739.942 500.498 740.709C501.144 741.476 502.052 742.813 503.223 744.72C503.959 745.921 504.55 746.824 504.994 747.43L506.114 748.944L502.511 748.944L501.588 747.551C501.558 747.501 501.497 747.415 501.406 747.294L500.816 746.461L499.878 744.917L498.863 743.267C498.238 742.4 497.665 741.708 497.145 741.194C496.626 740.679 496.157 740.308 495.738 740.081C495.319 739.854 494.615 739.74 493.626 739.74L492.839 739.74L492.839 748.944L489.812 748.944ZM493.747 730.371L492.839 730.371L492.839 737.046L493.989 737.046C495.523 737.046 496.575 736.915 497.145 736.653C497.716 736.39 498.16 735.994 498.477 735.464C498.795 734.935 498.954 734.332 498.954 733.656C498.954 732.99 498.778 732.387 498.425 731.847C498.071 731.307 497.574 730.926 496.934 730.704C496.293 730.482 495.231 730.371 493.747 730.371Z" fill-rule="evenodd"/>
<path clip-path="url(#TextBounds)" d="M512.445 727.798L524.433 727.798L524.433 730.492L515.472 730.492L515.472 736.94L524.131 736.94L524.131 739.65L515.472 739.65L515.472 746.219L524.721 746.219L524.721 748.913L512.445 748.913L512.445 727.798Z" fill-rule="evenodd"/>
<path clip-path="url(#TextBounds)" d="M544.558 727.798L556.546 727.798L556.546 730.492L547.585 730.492L547.585 736.94L556.243 736.94L556.243 739.65L547.585 739.65L547.585 746.219L556.834 746.219L556.834 748.913L544.558 748.913L544.558 727.798Z" fill-rule="evenodd"/>
<path clip-path="url(#TextBounds)" d="M580.86 727.798L583.736 727.798L583.736 748.944L581.132 748.944L566.994 732.672L566.994 748.944L564.149 748.944L564.149 727.798L566.601 727.798L580.86 744.206L580.86 727.798Z" fill-rule="evenodd"/>
<path clip-path="url(#TextBounds)" d="M603.69 738.53L610.789 738.53L610.789 747.49C608.185 748.621 605.602 749.186 603.039 749.186C599.537 749.186 596.739 748.164 594.645 746.121C592.552 744.077 591.505 741.557 591.505 738.56C591.505 735.401 592.589 732.773 594.759 730.674C596.929 728.575 599.648 727.525 602.918 727.525C604.108 727.525 605.239 727.654 606.308 727.911C607.378 728.168 608.73 728.64 610.365 729.326L610.365 732.414C607.842 730.951 605.34 730.219 602.857 730.219C600.546 730.219 598.599 731.007 597.014 732.581C595.43 734.155 594.638 736.087 594.638 738.378C594.638 740.78 595.43 742.743 597.014 744.266C598.599 745.79 600.637 746.552 603.13 746.552C604.341 746.552 605.789 746.275 607.474 745.719L607.761 745.629L607.761 741.224L603.69 741.224L603.69 738.53Z" fill-rule="evenodd"/>
<path clip-path="url(#TextBounds)" d="M619.239 727.798L622.266 727.798L622.266 748.944L619.239 748.944L619.239 727.798Z" fill-rule="evenodd"/>
<path clip-path="url(#TextBounds)" d="M647.76 727.798L650.636 727.798L650.636 748.944L648.033 748.944L633.895 732.672L633.895 748.944L631.05 748.944L631.05 727.798L633.502 727.798L647.76 744.206L647.76 727.798Z" fill-rule="evenodd"/>
<path clip-path="url(#TextBounds)" d="M659.162 727.798L671.151 727.798L671.151 730.492L662.19 730.492L662.19 736.94L670.848 736.94L670.848 739.65L662.19 739.65L662.19 746.219L671.438 746.219L671.438 748.913L659.162 748.913L659.162 727.798Z" fill-rule="evenodd"/>
<path clip-path="url(#TextBounds)" d="M678.662 727.798L690.651 727.798L690.651 730.492L681.69 730.492L681.69 736.94L690.348 736.94L690.348 739.65L681.69 739.65L681.69 746.219L690.938 746.219L690.938 748.913L678.662 748.913L678.662 727.798Z" fill-rule="evenodd"/>
<path clip-path="url(#TextBounds)" d="M698.253 748.944L698.253 727.798L703.551 727.798C705.69 727.798 707.388 728.327 708.644 729.387C709.901 730.447 710.529 731.879 710.529 733.686C710.529 734.917 710.221 735.982 709.606 736.88C708.99 737.778 708.107 738.449 706.957 738.893C707.633 739.337 708.294 739.942 708.94 740.709C709.585 741.476 710.494 742.813 711.664 744.72C712.401 745.921 712.991 746.824 713.435 747.43L714.555 748.944L710.953 748.944L710.029 747.551C709.999 747.501 709.939 747.415 709.848 747.294L709.258 746.461L708.319 744.917L707.305 743.267C706.679 742.4 706.107 741.708 705.587 741.194C705.067 740.679 704.598 740.308 704.179 740.081C703.76 739.854 703.057 739.74 702.068 739.74L701.28 739.74L701.28 748.944L698.253 748.944ZM702.189 730.371L701.28 730.371L701.28 737.046L702.431 737.046C703.965 737.046 705.017 736.915 705.587 736.653C706.157 736.39 706.601 735.994 706.919 735.464C707.237 734.935 707.396 734.332 707.396 733.656C707.396 732.99 707.219 732.387 706.866 731.847C706.513 731.307 706.016 730.926 705.375 730.704C704.734 730.482 703.672 730.371 702.189 730.371Z" fill-rule="evenodd"/>
</g>
<g fill="#000000" opacity="1" stroke="none">
<path clip-path="url(#TextBounds_2)" d="M267.636 644.017L273.175 644.017L257.45 683.066L256.253 683.066L243.534 651.449L230.703 683.066L229.506 683.066L213.837 644.017L219.431 644.017L230.146 670.82L240.917 644.017L246.205 644.017L257.032 670.82L267.636 644.017Z" fill-rule="evenodd"/>
<path clip-path="url(#TextBounds_2)" d="M304.327 643.461C310.339 643.461 315.344 645.363 319.342 649.166C323.341 652.97 325.34 657.739 325.34 663.472C325.34 669.205 323.322 673.951 319.287 677.708C315.251 681.465 310.162 683.344 304.021 683.344C298.158 683.344 293.273 681.465 289.367 677.708C285.462 673.951 283.509 669.243 283.509 663.583C283.509 657.776 285.475 652.97 289.409 649.166C293.343 645.363 298.315 643.461 304.327 643.461ZM304.55 648.749C300.097 648.749 296.437 650.14 293.57 652.924C290.703 655.707 289.27 659.26 289.27 663.583C289.27 667.777 290.708 671.265 293.584 674.048C296.46 676.831 300.059 678.223 304.383 678.223C308.724 678.223 312.347 676.804 315.251 673.965C318.155 671.126 319.607 667.591 319.607 663.361C319.607 659.242 318.155 655.776 315.251 652.965C312.347 650.154 308.78 648.749 304.55 648.749Z" fill-rule="evenodd"/>
<path clip-path="url(#TextBounds_2)" d="M342.159 644.017L347.725 644.017L347.725 677.833L365.232 677.833L365.232 682.899L342.159 682.899L342.159 644.017Z" fill-rule="evenodd"/>
<path clip-path="url(#TextBounds_2)" d="M380.158 644.017L400.893 644.017L400.893 648.972L385.724 648.972L385.724 659.826L400.893 659.826L400.893 664.78L385.724 664.78L385.724 682.899L380.158 682.899L380.158 644.017Z" fill-rule="evenodd"/>
<path clip-path="url(#TextBounds_2)" d="M437.862 663.75L450.915 663.75L450.915 680.227C446.128 682.305 441.378 683.344 436.665 683.344C430.227 683.344 425.083 681.465 421.233 677.708C417.382 673.951 415.457 669.317 415.457 663.806C415.457 657.998 417.452 653.165 421.441 649.306C425.431 645.446 430.431 643.516 436.443 643.516C438.632 643.516 440.71 643.753 442.677 644.226C444.644 644.699 447.13 645.567 450.136 646.828L450.136 652.506C445.497 649.816 440.896 648.471 436.331 648.471C432.082 648.471 428.501 649.918 425.588 652.812C422.675 655.707 421.219 659.26 421.219 663.472C421.219 667.888 422.675 671.497 425.588 674.299C428.501 677.1 432.249 678.501 436.832 678.501C439.059 678.501 441.722 677.991 444.82 676.971L445.349 676.804L445.349 668.704L437.862 668.704L437.862 663.75Z" fill-rule="evenodd"/>
<path clip-path="url(#TextBounds_2)" d="M481.455 643.795L485.38 643.795L502.775 682.899L497.069 682.899L491.892 671.376L475.36 671.376L470.462 682.899L464.756 682.899L481.455 643.795ZM489.61 666.422L483.348 652.339L477.531 666.422L489.61 666.422Z" fill-rule="evenodd"/>
<path clip-path="url(#TextBounds_2)" d="M547.954 644.017L553.243 644.017L553.243 682.899L548.455 682.899L522.46 652.979L522.46 682.899L517.228 682.899L517.228 644.017L521.737 644.017L547.954 674.187L547.954 644.017Z" fill-rule="evenodd"/>
<path clip-path="url(#TextBounds_2)" d="M592.577 663.75L605.631 663.75L605.631 680.227C600.844 682.305 596.094 683.344 591.381 683.344C584.942 683.344 579.798 681.465 575.948 677.708C572.098 673.951 570.173 669.317 570.173 663.806C570.173 657.998 572.167 653.165 576.157 649.306C580.146 645.446 585.146 643.516 591.158 643.516C593.348 643.516 595.426 643.753 597.392 644.226C599.359 644.699 601.846 645.567 604.851 646.828L604.851 652.506C600.213 649.816 595.611 648.471 591.047 648.471C586.798 648.471 583.217 649.918 580.304 652.812C577.39 655.707 575.934 659.26 575.934 663.472C575.934 667.888 577.39 671.497 580.304 674.299C583.217 677.1 586.965 678.501 591.548 678.501C593.774 678.501 596.437 677.991 599.535 676.971L600.064 676.804L600.064 668.704L592.577 668.704L592.577 663.75Z" fill-rule="evenodd"/>
<path clip-path="url(#TextBounds_2)" d="M691.982 644.017L697.521 644.017L681.796 683.066L680.599 683.066L667.88 651.449L655.049 683.066L653.852 683.066L638.183 644.017L643.777 644.017L654.493 670.82L665.264 644.017L670.552 644.017L681.378 670.82L691.982 644.017Z" fill-rule="evenodd"/>
<path clip-path="url(#TextBounds_2)" d="M711.863 644.017L733.906 644.017L733.906 648.972L717.429 648.972L717.429 660.828L733.349 660.828L733.349 665.81L717.429 665.81L717.429 677.889L734.434 677.889L734.434 682.843L711.863 682.843L711.863 644.017Z" fill-rule="evenodd"/>
<path clip-path="url(#TextBounds_2)" d="M750.418 644.017L755.985 644.017L755.985 682.899L750.418 682.899L750.418 644.017Z" fill-rule="evenodd"/>
<path clip-path="url(#TextBounds_2)" d="M795.626 663.75L808.679 663.75L808.679 680.227C803.892 682.305 799.142 683.344 794.429 683.344C787.991 683.344 782.846 681.465 778.996 677.708C775.146 673.951 773.221 669.317 773.221 663.806C773.221 657.998 775.216 653.165 779.205 649.306C783.194 645.446 788.195 643.516 794.206 643.516C796.396 643.516 798.474 643.753 800.441 644.226C802.408 644.699 804.894 645.567 807.9 646.828L807.9 652.506C803.261 649.816 798.66 648.471 794.095 648.471C789.846 648.471 786.265 649.918 783.352 652.812C780.439 655.707 778.982 659.26 778.982 663.472C778.982 667.888 780.439 671.497 783.352 674.299C786.265 677.1 790.013 678.501 794.596 678.501C796.823 678.501 799.485 677.991 802.584 676.971L803.113 676.804L803.113 668.704L795.626 668.704L795.626 663.75Z" fill-rule="evenodd"/>
<path clip-path="url(#TextBounds_2)" d="M826.806 644.017L832.372 644.017L832.372 677.833L849.879 677.833L849.879 682.899L826.806 682.899L826.806 644.017Z" fill-rule="evenodd"/>
</g>
</g>
<path d="M277.17 283.536C277.17 285.215 277.17 286.884 277.17 288.563C277.17 291.92 281.591 299.222 290.404 310.413C299.217 321.605 320.138 327.135 353.186 327.135C386.234 327.135 414.276 345.078 437.409 380.89C448.975 398.795 460.619 416.739 472.185 434.644C477.142 429.608 482.103 424.498 487.06 419.462C496.974 409.39 489.212 384.247 463.876 343.959C438.539 303.671 401.116 283.536 351.545 283.536C326.759 283.536 301.956 283.536 277.17 283.536ZM475.468 283.536C483.179 296.406 490.839 309.238 498.55 322.108C513.972 347.848 523.893 359.636 528.3 357.398C532.706 355.159 542.088 343.371 556.408 322.108C570.729 300.845 577.308 289.16 576.207 286.921C575.105 284.683 558.065 283.536 525.017 283.536C508.493 283.536 491.992 283.536 475.468 283.536ZM696.848 283.536C648.378 283.536 599.414 320.467 549.843 394.328C525.057 431.259 500.254 468.19 475.468 505.121C458.944 481.06 442.443 456.961 425.919 432.901C392.872 384.779 368.608 361.305 353.186 362.424C345.475 362.984 337.713 363.506 330.002 364.066C353.135 399.877 376.319 435.764 399.452 471.575C445.719 543.199 471.062 578.982 475.468 578.982C479.874 578.982 509.098 537.043 563.076 453.11C617.054 369.176 661.057 327.135 695.206 327.135C729.355 327.135 750.278 322.127 757.988 312.055C765.7 301.983 769.581 294.681 769.581 290.204C769.581 287.966 769.581 285.774 769.581 283.536C745.346 283.536 721.082 283.536 696.848 283.536ZM693.565 360.783C678.143 360.783 650.101 390.411 609.342 449.725C568.583 509.038 551.44 545.446 558.049 558.875C564.659 572.305 570.699 577.835 576.207 575.597C581.715 573.359 607.058 538.097 652.223 469.831C697.388 401.565 719.492 366.304 718.39 364.066C717.289 361.827 708.987 360.783 693.565 360.783Z" fill="#000000" fill-rule="evenodd" opacity="1" stroke="#000000" stroke-linecap="round" stroke-linejoin="round" stroke-opacity="0.00430963" stroke-width="1"/>
</g>
</svg>
