<?xml version="1.0" encoding="UTF-8" standalone="no"?>
<!DOCTYPE svg PUBLIC "-//W3C//DTD SVG 1.1//EN" "http://www.w3.org/Graphics/SVG/1.1/DTD/svg11.dtd">

<!-- Created with Vectornator (http://vectornator.io/) -->
<svg height="100%" stroke-miterlimit="10" style="fill-rule:nonzero;clip-rule:evenodd;stroke-linecap:round;stroke-linejoin:round;" version="1.1" viewBox="0 0 3840 2160" width="100%" xml:space="preserve" xmlns="http://www.w3.org/2000/svg" xmlns:vectornator="http://vectornator.io" xmlns:xlink="http://www.w3.org/1999/xlink">
<metadata>
<vectornator:setting key="IsTimeLapseWatermarkDisabled" value="false"/>
<vectornator:setting key="UndoHistoryDisabled" value="true"/>
<vectornator:setting key="VNDimensionsVisible" value="true"/>
<vectornator:setting key="VNSnapToGuides" value="true"/>
<vectornator:setting key="WDCMYKEnabledKey" value="false"/>
<vectornator:setting key="WDDisplayWhiteBackground" value="false"/>
<vectornator:setting key="WDDynamicGuides" value="false"/>
<vectornator:setting key="WDGuidesVisible" value="true"/>
<vectornator:setting key="WDIsolateActiveLayer" value="false"/>
<vectornator:setting key="WDOutlineMode" value="false"/>
<vectornator:setting key="WDRulersVisible" value="true"/>
<vectornator:setting key="WDSnapToEdges" value="false"/>
<vectornator:setting key="WDSnapToGrid" value="false"/>
<vectornator:setting key="WDSnapToPoints" value="true"/>
<vectornator:setting key="WDUnits" value="Pixels"/>
</metadata>
<defs>
<clipPath id="TextBounds">
<rect height="389.172" width="1764.55" x="1037.73" y="1742.29"/>
</clipPath>
<clipPath id="TextBounds_2">
<rect height="405.25" width="3271.64" x="284.18" y="1271.21"/>
</clipPath>
</defs>
<clipPath id="ArtboardFrame">
<rect height="2160" width="3840" x="0" y="0"/>
</clipPath>
<g clip-path="url(#ArtboardFrame)" id="Ebene-1" vectornator:layerName="Ebene 1">
<path d="M-142.716-164.537L4126.29-164.537C4134.35-164.537 4140.88-160.642 4140.88-155.837L4140.88 2403.94C4140.88 2408.74 4134.35 2412.64 4126.29 2412.64L-142.716 2412.64C-150.772 2412.64-157.303 2408.74-157.303 2403.94L-157.303-155.837C-157.303-160.642-150.772-164.537-142.716-164.537Z" fill="#150f29" fill-rule="evenodd" opacity="1" stroke="none"/>
<g fill="#e9d9cc" opacity="1" stroke="#000000" stroke-linecap="round" stroke-linejoin="round" stroke-opacity="0.00430963" stroke-width="5.13018">
<path clip-path="url(#TextBounds)" d="M1080.49 1849.07L1067.94 1841.48C1060.08 1836.69 1054.48 1831.97 1051.15 1827.32C1047.82 1822.68 1046.16 1817.33 1046.16 1811.27C1046.16 1802.2 1049.31 1794.83 1055.61 1789.16C1061.9 1783.49 1070.09 1780.66 1080.16 1780.66C1089.78 1780.66 1098.61 1783.36 1106.64 1788.75L1106.64 1807.48C1098.34 1799.5 1089.4 1795.51 1079.83 1795.51C1074.43 1795.51 1070.01 1796.76 1066.54 1799.27C1063.07 1801.77 1061.34 1804.98 1061.34 1808.88C1061.34 1812.35 1062.61 1815.59 1065.14 1818.62C1067.67 1821.64 1071.77 1824.81 1077.43 1828.11L1090.06 1835.54C1104.14 1843.9 1111.18 1854.57 1111.18 1867.55C1111.18 1876.8 1108.09 1884.3 1101.9 1890.08C1095.71 1895.86 1087.66 1898.75 1077.76 1898.75C1066.37 1898.75 1056 1895.25 1046.65 1888.27L1046.65 1867.31C1055.56 1878.58 1065.88 1884.22 1077.6 1884.22C1082.77 1884.22 1087.07 1882.78 1090.51 1879.89C1093.95 1877 1095.67 1873.38 1095.67 1869.04C1095.67 1862 1090.61 1855.34 1080.49 1849.07Z" fill-rule="evenodd"/>
<path clip-path="url(#TextBounds)" d="M1189.95 1780.49C1207.77 1780.49 1222.61 1786.13 1234.46 1797.41C1246.32 1808.69 1252.25 1822.83 1252.25 1839.83C1252.25 1856.83 1246.27 1870.89 1234.3 1882.03C1222.33 1893.18 1207.25 1898.75 1189.04 1898.75C1171.65 1898.75 1157.17 1893.18 1145.59 1882.03C1134.01 1870.89 1128.22 1856.94 1128.22 1840.16C1128.22 1822.94 1134.05 1808.69 1145.72 1797.41C1157.38 1786.13 1172.12 1780.49 1189.95 1780.49ZM1190.61 1796.17C1177.4 1796.17 1166.55 1800.3 1158.05 1808.55C1149.55 1816.8 1145.3 1827.34 1145.3 1840.16C1145.3 1852.59 1149.57 1862.93 1158.09 1871.18C1166.62 1879.44 1177.29 1883.56 1190.11 1883.56C1202.98 1883.56 1213.72 1879.35 1222.33 1870.94C1230.94 1862.52 1235.25 1852.04 1235.25 1839.5C1235.25 1827.28 1230.94 1817.01 1222.33 1808.68C1213.72 1800.34 1203.15 1796.17 1190.61 1796.17Z" fill-rule="evenodd"/>
<path clip-path="url(#TextBounds)" d="M1276.63 1782.15L1338.11 1782.15L1338.11 1796.83L1293.13 1796.83L1293.13 1829.02L1338.11 1829.02L1338.11 1843.7L1293.13 1843.7L1293.13 1897.42L1276.63 1897.42L1276.63 1782.15Z" fill-rule="evenodd"/>
<path clip-path="url(#TextBounds)" d="M1349.95 1781.98L1446.25 1781.98L1446.25 1796.67L1406.06 1796.67L1406.06 1897.42L1389.47 1897.42L1389.47 1796.67L1349.95 1796.67L1349.95 1781.98Z" fill-rule="evenodd"/>
<path clip-path="url(#TextBounds)" d="M1612.65 1782.15L1629.07 1782.15L1582.44 1897.92L1578.89 1897.92L1541.18 1804.18L1503.14 1897.92L1499.59 1897.92L1453.14 1782.15L1469.72 1782.15L1501.49 1861.61L1533.43 1782.15L1549.11 1782.15L1581.21 1861.61L1612.65 1782.15Z" fill-rule="evenodd"/>
<path clip-path="url(#TextBounds)" d="M1669.21 1781.48L1680.85 1781.48L1732.42 1897.42L1715.5 1897.42L1700.16 1863.26L1651.14 1863.26L1636.61 1897.42L1619.7 1897.42L1669.21 1781.48ZM1693.39 1848.57L1674.82 1806.82L1657.57 1848.57L1693.39 1848.57Z" fill-rule="evenodd"/>
<path clip-path="url(#TextBounds)" d="M1749.62 1897.42L1749.62 1782.15L1778.51 1782.15C1790.17 1782.15 1799.42 1785.03 1806.27 1790.81C1813.12 1796.59 1816.55 1804.4 1816.55 1814.25C1816.55 1820.96 1814.87 1826.76 1811.51 1831.66C1808.16 1836.55 1803.34 1840.21 1797.07 1842.63C1800.76 1845.05 1804.36 1848.35 1807.88 1852.53C1811.4 1856.72 1816.35 1864 1822.74 1874.4C1826.75 1880.95 1829.97 1885.87 1832.39 1889.17L1838.5 1897.42L1818.86 1897.42L1813.82 1889.83C1813.66 1889.56 1813.33 1889.09 1812.83 1888.43L1809.61 1883.89L1804.5 1875.47L1798.97 1866.48C1795.56 1861.75 1792.44 1857.98 1789.6 1855.17C1786.77 1852.37 1784.21 1850.35 1781.93 1849.11C1779.65 1847.87 1775.81 1847.25 1770.42 1847.25L1766.13 1847.25L1766.13 1897.42L1749.62 1897.42ZM1771.08 1796.17L1766.13 1796.17L1766.13 1832.56L1772.4 1832.56C1780.76 1832.56 1786.5 1831.85 1789.6 1830.42C1792.71 1828.99 1795.13 1826.83 1796.87 1823.94C1798.6 1821.05 1799.47 1817.77 1799.47 1814.08C1799.47 1810.45 1798.5 1807.16 1796.58 1804.22C1794.65 1801.28 1791.94 1799.2 1788.45 1797.99C1784.96 1796.78 1779.17 1796.17 1771.08 1796.17Z" fill-rule="evenodd"/>
<path clip-path="url(#TextBounds)" d="M1855.2 1782.15L1920.56 1782.15L1920.56 1796.83L1871.71 1796.83L1871.71 1831.99L1918.91 1831.99L1918.91 1846.76L1871.71 1846.76L1871.71 1882.57L1922.13 1882.57L1922.13 1897.26L1855.2 1897.26L1855.2 1782.15Z" fill-rule="evenodd"/>
<path clip-path="url(#TextBounds)" d="M1994.66 1782.15L2060.01 1782.15L2060.01 1796.83L2011.16 1796.83L2011.16 1831.99L2058.36 1831.99L2058.36 1846.76L2011.16 1846.76L2011.16 1882.57L2061.58 1882.57L2061.58 1897.26L1994.66 1897.26L1994.66 1782.15Z" fill-rule="evenodd"/>
<path clip-path="url(#TextBounds)" d="M2174.76 1782.15L2190.43 1782.15L2190.43 1897.42L2176.24 1897.42L2099.17 1808.72L2099.17 1897.42L2083.65 1897.42L2083.65 1782.15L2097.02 1782.15L2174.76 1871.6L2174.76 1782.15Z" fill-rule="evenodd"/>
<path clip-path="url(#TextBounds)" d="M2281.41 1840.65L2320.11 1840.65L2320.11 1889.5C2305.92 1895.66 2291.83 1898.75 2277.86 1898.75C2258.77 1898.75 2243.52 1893.18 2232.1 1882.03C2220.69 1870.89 2214.98 1857.16 2214.98 1840.82C2214.98 1823.6 2220.9 1809.27 2232.72 1797.82C2244.55 1786.38 2259.38 1780.66 2277.2 1780.66C2283.69 1780.66 2289.85 1781.36 2295.69 1782.76C2301.52 1784.17 2308.89 1786.74 2317.8 1790.48L2317.8 1807.31C2304.05 1799.34 2290.4 1795.35 2276.87 1795.35C2264.27 1795.35 2253.66 1799.64 2245.02 1808.22C2236.38 1816.8 2232.06 1827.34 2232.06 1839.83C2232.06 1852.92 2236.38 1863.62 2245.02 1871.93C2253.66 1880.23 2264.77 1884.39 2278.36 1884.39C2284.96 1884.39 2292.85 1882.87 2302.04 1879.85L2303.61 1879.35L2303.61 1855.34L2281.41 1855.34L2281.41 1840.65Z" fill-rule="evenodd"/>
<path clip-path="url(#TextBounds)" d="M2348.37 1782.15L2364.88 1782.15L2364.88 1897.42L2348.37 1897.42L2348.37 1782.15Z" fill-rule="evenodd"/>
<path clip-path="url(#TextBounds)" d="M2486.05 1782.15L2501.73 1782.15L2501.73 1897.42L2487.54 1897.42L2410.47 1808.72L2410.47 1897.42L2394.95 1897.42L2394.95 1782.15L2408.32 1782.15L2486.05 1871.6L2486.05 1782.15Z" fill-rule="evenodd"/>
<path clip-path="url(#TextBounds)" d="M2530.41 1782.15L2595.76 1782.15L2595.76 1796.83L2546.91 1796.83L2546.91 1831.99L2594.11 1831.99L2594.11 1846.76L2546.91 1846.76L2546.91 1882.57L2597.33 1882.57L2597.33 1897.26L2530.41 1897.26L2530.41 1782.15Z" fill-rule="evenodd"/>
<path clip-path="url(#TextBounds)" d="M2618.91 1782.15L2684.26 1782.15L2684.26 1796.83L2635.41 1796.83L2635.41 1831.99L2682.61 1831.99L2682.61 1846.76L2635.41 1846.76L2635.41 1882.57L2685.83 1882.57L2685.83 1897.26L2618.91 1897.26L2618.91 1782.15Z" fill-rule="evenodd"/>
<path clip-path="url(#TextBounds)" d="M2707.9 1897.42L2707.9 1782.15L2736.78 1782.15C2748.45 1782.15 2757.7 1785.03 2764.55 1790.81C2771.4 1796.59 2774.82 1804.4 2774.82 1814.25C2774.82 1820.96 2773.15 1826.76 2769.79 1831.66C2766.43 1836.55 2761.62 1840.21 2755.35 1842.63C2759.04 1845.05 2762.64 1848.35 2766.16 1852.53C2769.68 1856.72 2774.63 1864 2781.01 1874.4C2785.03 1880.95 2788.25 1885.87 2790.67 1889.17L2796.77 1897.42L2777.13 1897.42L2772.1 1889.83C2771.94 1889.56 2771.61 1889.09 2771.11 1888.43L2767.89 1883.89L2762.78 1875.47L2757.25 1866.48C2753.84 1861.75 2750.71 1857.98 2747.88 1855.17C2745.05 1852.37 2742.49 1850.35 2740.21 1849.11C2737.92 1847.87 2734.09 1847.25 2728.7 1847.25L2724.4 1847.25L2724.4 1897.42L2707.9 1897.42ZM2729.36 1796.17L2724.4 1796.17L2724.4 1832.56L2730.68 1832.56C2739.04 1832.56 2744.77 1831.85 2747.88 1830.42C2750.99 1828.99 2753.41 1826.83 2755.14 1823.94C2756.88 1821.05 2757.74 1817.77 2757.74 1814.08C2757.74 1810.45 2756.78 1807.16 2754.85 1804.22C2752.93 1801.28 2750.22 1799.2 2746.73 1797.99C2743.23 1796.78 2737.44 1796.17 2729.36 1796.17Z" fill-rule="evenodd"/>
</g>
<g fill="#e9d9cc" opacity="1" stroke="#000000" stroke-linecap="round" stroke-linejoin="round" stroke-opacity="0.00430963" stroke-width="5.13018">
<path clip-path="url(#TextBounds_2)" d="M617.914 1354.23L652.117 1354.23L555.008 1595.37L547.617 1595.37L469.07 1400.12L389.836 1595.37L382.445 1595.37L285.68 1354.23L320.227 1354.23L386.398 1519.75L452.914 1354.23L485.57 1354.23L552.43 1519.75L617.914 1354.23Z" fill-rule="evenodd"/>
<path clip-path="url(#TextBounds_2)" d="M792.742 1350.79C829.867 1350.79 860.776 1362.54 885.469 1386.03C910.161 1409.52 922.508 1438.96 922.508 1474.37C922.508 1509.78 910.047 1539.08 885.125 1562.28C860.203 1585.49 828.779 1597.09 790.852 1597.09C754.643 1597.09 724.479 1585.49 700.359 1562.28C676.24 1539.08 664.18 1510.01 664.18 1475.06C664.18 1439.19 676.326 1409.52 700.617 1386.03C724.909 1362.54 755.617 1350.79 792.742 1350.79ZM794.117 1383.45C766.617 1383.45 744.016 1392.04 726.312 1409.23C708.609 1426.42 699.758 1448.36 699.758 1475.06C699.758 1500.95 708.638 1522.5 726.398 1539.68C744.159 1556.87 766.388 1565.46 793.086 1565.46C819.898 1565.46 842.271 1556.7 860.203 1539.17C878.135 1521.64 887.102 1499.81 887.102 1473.68C887.102 1448.25 878.135 1426.85 860.203 1409.49C842.271 1392.13 820.242 1383.45 794.117 1383.45Z" fill-rule="evenodd"/>
<path clip-path="url(#TextBounds_2)" d="M974.617 1354.23L1008.99 1354.23L1008.99 1563.06L1117.1 1563.06L1117.1 1594.34L974.617 1594.34L974.617 1354.23Z" fill-rule="evenodd"/>
<path clip-path="url(#TextBounds_2)" d="M1157.52 1354.23L1285.57 1354.23L1285.57 1384.82L1191.9 1384.82L1191.9 1451.85L1285.57 1451.85L1285.57 1482.45L1191.9 1482.45L1191.9 1594.34L1157.52 1594.34L1157.52 1354.23Z" fill-rule="evenodd"/>
<path clip-path="url(#TextBounds_2)" d="M1462.12 1476.09L1542.73 1476.09L1542.73 1577.84C1513.16 1590.67 1483.83 1597.09 1454.73 1597.09C1414.97 1597.09 1383.2 1585.49 1359.42 1562.28C1335.65 1539.08 1323.76 1510.46 1323.76 1476.43C1323.76 1440.57 1336.08 1410.72 1360.71 1386.89C1385.35 1363.05 1416.23 1351.14 1453.35 1351.14C1466.87 1351.14 1479.71 1352.6 1491.85 1355.52C1504 1358.44 1519.35 1363.8 1537.91 1371.59L1537.91 1406.65C1509.27 1390.04 1480.85 1381.73 1452.66 1381.73C1426.42 1381.73 1404.31 1390.67 1386.32 1408.54C1368.33 1426.42 1359.34 1448.36 1359.34 1474.37C1359.34 1501.64 1368.33 1523.93 1386.32 1541.23C1404.31 1558.53 1427.46 1567.18 1455.76 1567.18C1469.51 1567.18 1485.95 1564.03 1505.09 1557.73L1508.35 1556.7L1508.35 1506.68L1462.12 1506.68L1462.12 1476.09Z" fill-rule="evenodd"/>
<path clip-path="url(#TextBounds_2)" d="M1679.57 1352.85L1703.8 1352.85L1811.23 1594.34L1775.99 1594.34L1744.02 1523.18L1641.93 1523.18L1611.68 1594.34L1576.45 1594.34L1679.57 1352.85ZM1729.93 1492.59L1691.26 1405.62L1655.34 1492.59L1729.93 1492.59Z" fill-rule="evenodd"/>
<path clip-path="url(#TextBounds_2)" d="M2038.48 1354.23L2071.13 1354.23L2071.13 1594.34L2041.57 1594.34L1881.04 1409.57L1881.04 1594.34L1848.73 1594.34L1848.73 1354.23L1876.57 1354.23L2038.48 1540.54L2038.48 1354.23Z" fill-rule="evenodd"/>
<path clip-path="url(#TextBounds_2)" d="M2262.29 1476.09L2342.9 1476.09L2342.9 1577.84C2313.34 1590.67 2284 1597.09 2254.9 1597.09C2215.14 1597.09 2183.37 1585.49 2159.59 1562.28C2135.82 1539.08 2123.93 1510.46 2123.93 1476.43C2123.93 1440.57 2136.25 1410.72 2160.88 1386.89C2185.52 1363.05 2216.4 1351.14 2253.52 1351.14C2267.04 1351.14 2279.88 1352.6 2292.02 1355.52C2304.17 1358.44 2319.52 1363.8 2338.09 1371.59L2338.09 1406.65C2309.44 1390.04 2281.02 1381.73 2252.84 1381.73C2226.6 1381.73 2204.48 1390.67 2186.49 1408.54C2168.5 1426.42 2159.51 1448.36 2159.51 1474.37C2159.51 1501.64 2168.5 1523.93 2186.49 1541.23C2204.48 1558.53 2227.63 1567.18 2255.93 1567.18C2269.68 1567.18 2286.12 1564.03 2305.26 1557.73L2308.52 1556.7L2308.52 1506.68L2262.29 1506.68L2262.29 1476.09Z" fill-rule="evenodd"/>
<path clip-path="url(#TextBounds_2)" d="M2772.65 1354.23L2806.85 1354.23L2709.74 1595.37L2702.35 1595.37L2623.8 1400.12L2544.57 1595.37L2537.18 1595.37L2440.41 1354.23L2474.96 1354.23L2541.13 1519.75L2607.65 1354.23L2640.3 1354.23L2707.16 1519.75L2772.65 1354.23Z" fill-rule="evenodd"/>
<path clip-path="url(#TextBounds_2)" d="M2843.66 1354.23L2979.79 1354.23L2979.79 1384.82L2878.04 1384.82L2878.04 1458.04L2976.35 1458.04L2976.35 1488.81L2878.04 1488.81L2878.04 1563.4L2983.05 1563.4L2983.05 1594L2843.66 1594L2843.66 1354.23Z" fill-rule="evenodd"/>
<path clip-path="url(#TextBounds_2)" d="M3030.01 1354.23L3064.38 1354.23L3064.38 1594.34L3030.01 1594.34L3030.01 1354.23Z" fill-rule="evenodd"/>
<path clip-path="url(#TextBounds_2)" d="M3257.43 1476.09L3338.04 1476.09L3338.04 1577.84C3308.48 1590.67 3279.14 1597.09 3250.04 1597.09C3210.28 1597.09 3178.51 1585.49 3154.73 1562.28C3130.96 1539.08 3119.07 1510.46 3119.07 1476.43C3119.07 1440.57 3131.39 1410.72 3156.02 1386.89C3180.66 1363.05 3211.54 1351.14 3248.66 1351.14C3262.18 1351.14 3275.02 1352.6 3287.16 1355.52C3299.31 1358.44 3314.66 1363.8 3333.23 1371.59L3333.23 1406.65C3304.58 1390.04 3276.16 1381.73 3247.98 1381.73C3221.74 1381.73 3199.62 1390.67 3181.63 1408.54C3163.64 1426.42 3154.65 1448.36 3154.65 1474.37C3154.65 1501.64 3163.64 1523.93 3181.63 1541.23C3199.62 1558.53 3222.77 1567.18 3251.07 1567.18C3264.82 1567.18 3281.26 1564.03 3300.4 1557.73L3303.66 1556.7L3303.66 1506.68L3257.43 1506.68L3257.43 1476.09Z" fill-rule="evenodd"/>
<path clip-path="url(#TextBounds_2)" d="M3398.23 1354.23L3432.6 1354.23L3432.6 1563.06L3540.71 1563.06L3540.71 1594.34L3398.23 1594.34L3398.23 1354.23Z" fill-rule="evenodd"/>
</g>
<path d="M1086.67 216.794C1086.67 222.476 1086.67 228.128 1086.67 233.808C1086.67 245.172 1101.63 269.888 1131.46 307.767C1161.29 345.645 1232.1 364.363 1343.96 364.364C1455.82 364.364 1550.73 425.097 1629.03 546.308C1668.18 606.914 1707.59 667.646 1746.74 728.253C1763.51 711.207 1780.3 693.909 1797.08 676.864C1830.64 642.773 1804.37 557.673 1718.61 421.308C1632.85 284.945 1506.19 216.794 1338.4 216.794C1254.51 216.794 1170.56 216.794 1086.67 216.794ZM1757.85 216.794C1783.95 260.355 1809.87 303.789 1835.97 347.35C1888.17 434.471 1921.75 474.37 1936.67 466.794C1951.58 459.219 1983.34 419.319 2031.81 347.35C2080.28 275.38 2102.55 235.828 2098.82 228.253C2095.09 220.677 2037.41 216.794 1925.56 216.794C1869.63 216.794 1813.78 216.794 1757.85 216.794ZM2507.15 216.794C2343.1 216.794 2177.37 341.794 2009.58 591.794C1925.69 716.794 1841.74 841.794 1757.85 966.794C1701.92 885.355 1646.07 803.789 1590.14 722.35C1478.28 559.471 1396.16 480.021 1343.96 483.808C1317.86 485.702 1291.59 487.469 1265.49 489.364C1343.79 610.576 1422.26 732.041 1500.56 853.253C1657.16 1095.68 1742.93 1216.79 1757.85 1216.79C1772.76 1216.79 1871.68 1074.84 2054.37 790.753C2237.07 506.662 2386.01 364.364 2501.6 364.364C2617.18 364.364 2688 347.413 2714.1 313.322C2740.2 279.231 2753.33 254.516 2753.33 239.364C2753.33 231.788 2753.33 224.37 2753.33 216.794C2671.3 216.794 2589.18 216.794 2507.15 216.794ZM2496.04 478.253C2443.84 478.253 2348.93 578.537 2210.97 779.294C2073.02 980.052 2014.99 1103.28 2037.36 1148.74C2059.73 1194.19 2080.18 1212.91 2098.82 1205.34C2117.46 1197.76 2203.24 1078.41 2356.11 847.35C2508.98 616.289 2583.8 496.939 2580.07 489.364C2576.34 481.788 2548.24 478.253 2496.04 478.253Z" fill="#e9d9cc" fill-rule="evenodd" opacity="1" stroke="#000000" stroke-linecap="round" stroke-linejoin="round" stroke-opacity="0.00430963" stroke-width="1"/>
</g>
</svg>
