<?xml version="1.0" encoding="UTF-8" standalone="no"?>
<!DOCTYPE svg PUBLIC "-//W3C//DTD SVG 1.1//EN" "http://www.w3.org/Graphics/SVG/1.1/DTD/svg11.dtd">

<!-- Created with Vectornator (http://vectornator.io/) -->
<svg height="100%" stroke-miterlimit="10" style="fill-rule:nonzero;clip-rule:evenodd;stroke-linecap:round;stroke-linejoin:round;" version="1.1" viewBox="0 0 1080 1080" width="100%" xml:space="preserve" xmlns="http://www.w3.org/2000/svg" xmlns:vectornator="http://vectornator.io" xmlns:xlink="http://www.w3.org/1999/xlink">
<metadata>
<vectornator:setting key="IsTimeLapseWatermarkDisabled" value="false"/>
<vectornator:setting key="UndoHistoryDisabled" value="true"/>
<vectornator:setting key="VNDimensionsVisible" value="true"/>
<vectornator:setting key="VNSnapToGuides" value="true"/>
<vectornator:setting key="WDCMYKEnabledKey" value="false"/>
<vectornator:setting key="WDDisplayWhiteBackground" value="false"/>
<vectornator:setting key="WDDynamicGuides" value="false"/>
<vectornator:setting key="WDGuidesVisible" value="true"/>
<vectornator:setting key="WDIsolateActiveLayer" value="false"/>
<vectornator:setting key="WDOutlineMode" value="false"/>
<vectornator:setting key="WDRulersVisible" value="true"/>
<vectornator:setting key="WDSnapToEdges" value="false"/>
<vectornator:setting key="WDSnapToGrid" value="false"/>
<vectornator:setting key="WDSnapToPoints" value="true"/>
<vectornator:setting key="WDUnits" value="Pixels"/>
</metadata>
<defs/>
<g id="Ebene-1" vectornator:layerName="Ebene 1">
<path d="M40 188.714C40 192.706 40 196.676 40 200.667C40 208.651 48.9779 226.016 66.875 252.629C84.7721 279.241 127.261 292.392 194.375 292.392C261.489 292.392 318.437 335.062 365.417 420.221C388.907 462.801 412.552 505.47 436.042 548.05C446.109 536.075 456.182 523.921 466.25 511.946C486.384 487.995 470.621 428.206 419.167 332.4C367.713 236.594 291.713 188.714 191.042 188.714C140.706 188.714 90.3356 188.714 40 188.714ZM442.708 188.714C458.368 219.318 473.923 249.834 489.583 280.439C520.903 341.648 541.051 369.679 550 364.357C558.949 359.034 578.001 331.002 607.083 280.439C636.166 229.875 649.529 202.087 647.292 196.764C645.055 191.442 610.448 188.714 543.333 188.714C509.776 188.714 476.265 188.714 442.708 188.714ZM892.292 188.714C793.858 188.714 694.422 276.536 593.75 452.179C543.414 540 493.044 627.822 442.708 715.643C409.151 658.426 375.64 601.12 342.083 543.903C274.969 429.469 225.694 373.649 194.375 376.31C178.715 377.641 162.952 378.882 147.292 380.214C194.272 465.374 241.353 550.712 288.333 635.872C382.293 806.192 433.76 891.286 442.708 891.286C451.657 891.286 511.005 791.555 620.625 591.961C730.245 392.367 819.607 292.392 888.958 292.392C958.31 292.392 1000.8 280.483 1016.46 256.532C1032.12 232.58 1040 215.216 1040 204.571C1040 199.248 1040 194.037 1040 188.714C990.783 188.714 941.508 188.714 892.292 188.714ZM885.625 372.407C854.305 372.407 797.358 442.864 714.583 583.911C631.809 724.957 596.994 811.537 610.417 843.472C623.839 875.407 636.106 888.558 647.292 883.236C658.477 877.913 709.944 794.061 801.667 631.725C893.389 469.388 938.279 385.536 936.042 380.214C933.805 374.891 916.945 372.407 885.625 372.407Z" fill="#000000" fill-rule="evenodd" opacity="1" stroke="#000000" stroke-linecap="round" stroke-linejoin="round" stroke-opacity="0.00430963" stroke-width="1"/>
</g>
</svg>
