<?xml version="1.0" encoding="UTF-8" standalone="no"?>
<!DOCTYPE svg PUBLIC "-//W3C//DTD SVG 1.1//EN" "http://www.w3.org/Graphics/SVG/1.1/DTD/svg11.dtd">

<!-- Created with Vectornator (http://vectornator.io/) -->
<svg height="100%" stroke-miterlimit="10" style="fill-rule:nonzero;clip-rule:evenodd;stroke-linecap:round;stroke-linejoin:round;" version="1.1" viewBox="0 0 1024 1024" width="100%" xml:space="preserve" xmlns="http://www.w3.org/2000/svg" xmlns:vectornator="http://vectornator.io" xmlns:xlink="http://www.w3.org/1999/xlink">
<metadata>
<vectornator:setting key="IsTimeLapseWatermarkDisabled" value="false"/>
<vectornator:setting key="UndoHistoryDisabled" value="true"/>
<vectornator:setting key="VNDimensionsVisible" value="true"/>
<vectornator:setting key="VNSnapToGuides" value="true"/>
<vectornator:setting key="WDCMYKEnabledKey" value="false"/>
<vectornator:setting key="WDDisplayWhiteBackground" value="false"/>
<vectornator:setting key="WDDynamicGuides" value="false"/>
<vectornator:setting key="WDGuidesVisible" value="true"/>
<vectornator:setting key="WDIsolateActiveLayer" value="false"/>
<vectornator:setting key="WDOutlineMode" value="false"/>
<vectornator:setting key="WDRulersVisible" value="true"/>
<vectornator:setting key="WDSnapToEdges" value="false"/>
<vectornator:setting key="WDSnapToGrid" value="false"/>
<vectornator:setting key="WDSnapToPoints" value="true"/>
<vectornator:setting key="WDUnits" value="Pixels"/>
</metadata>
<defs/>
<clipPath id="ArtboardFrame">
<rect height="1024" width="1024" x="0" y="0"/>
</clipPath>
<g clip-path="url(#ArtboardFrame)" id="Ebene-1" vectornator:layerName="Ebene 1">
<path d="M-193.377-46.7658L1063.95-46.7658C1066.32-46.7658 1068.24-44.8423 1068.24-42.4696L1068.24 1221.64C1068.24 1224.01 1066.32 1225.93 1063.95 1225.93L-193.377 1225.93C-195.749 1225.93-197.673 1224.01-197.673 1221.64L-197.673-42.4696C-197.673-44.8423-195.749-46.7658-193.377-46.7658Z" fill="#150f29" fill-rule="evenodd" opacity="1" stroke="none"/>
<path d="M12 212C12 215.409 12 218.8 12 222.208C12 229.027 20.9779 243.856 38.875 266.583C56.7721 289.311 99.2605 300.541 166.375 300.542C233.489 300.542 290.437 336.982 337.417 409.708C360.907 446.072 384.552 482.511 408.042 518.875C418.109 508.648 428.182 498.269 438.25 488.042C458.384 467.587 442.621 416.527 391.167 334.708C339.713 252.89 263.713 212 163.042 212C112.706 212 62.3356 212 12 212ZM414.708 212C430.368 238.136 445.923 264.197 461.583 290.333C492.903 342.606 513.051 366.545 522 362C530.949 357.455 550.001 333.515 579.083 290.333C608.166 247.152 621.529 223.42 619.292 218.875C617.055 214.33 582.448 212 515.333 212C481.776 212 448.265 212 414.708 212ZM864.292 212C765.858 212 666.422 287 565.75 437C515.414 512 465.044 587 414.708 662C381.151 613.136 347.64 564.197 314.083 515.333C246.969 417.606 197.694 369.936 166.375 372.208C150.715 373.345 134.952 374.405 119.292 375.542C166.272 448.269 213.353 521.148 260.333 593.875C354.293 739.33 405.76 812 414.708 812C423.657 812 483.005 726.83 592.625 556.375C702.245 385.92 791.607 300.542 860.958 300.542C930.31 300.542 972.799 290.371 988.458 269.917C1004.12 249.462 1012 234.633 1012 225.542C1012 220.996 1012 216.545 1012 212C962.783 212 913.508 212 864.292 212ZM857.625 368.875C826.305 368.875 769.358 429.045 686.583 549.5C603.809 669.955 568.994 743.894 582.417 771.167C595.839 798.439 608.106 809.67 619.292 805.125C630.477 800.58 681.944 728.97 773.667 590.333C865.389 451.697 910.279 380.087 908.042 375.542C905.805 370.996 888.945 368.875 857.625 368.875Z" fill="#e9d9cc" fill-rule="evenodd" opacity="1" stroke="#000000" stroke-linecap="round" stroke-linejoin="round" stroke-opacity="0.00430963" stroke-width="1"/>
</g>
</svg>
